solid ImplictCADExport
facet normal -8.901607e-3 -9.999208e-1 -8.901607e-3
outer loop
vertex 7.8571427e-1 6.932955e-3 6.932955e-3
vertex 7.8571427e-1 0.0e0 7.8571427e-1
vertex 6.932955e-3 6.932955e-3 7.8571427e-1
endloop
endfacet
facet normal -9.999208e-1 -8.901607e-3 -8.901607e-3
outer loop
vertex 6.932955e-3 6.932955e-3 7.8571427e-1
vertex 0.0e0 7.8571427e-1 7.8571427e-1
vertex 6.932955e-3 7.8571427e-1 6.932955e-3
endloop
endfacet
facet normal -8.901607e-3 -8.901607e-3 -9.999208e-1
outer loop
vertex 6.932955e-3 7.8571427e-1 6.932955e-3
vertex 7.8571427e-1 7.8571427e-1 0.0e0
vertex 7.8571427e-1 6.932955e-3 6.932955e-3
endloop
endfacet
facet normal 8.745913e-3 8.745913e-3 -9.999235e-1
outer loop
vertex 6.932955e-3 7.8571427e-1 6.932955e-3
vertex 7.8571427e-1 6.932955e-3 6.932955e-3
vertex -4.440892e-16 -3.8857806e-16 -3.8857806e-16
endloop
endfacet
facet normal 8.745913e-3 -9.999235e-1 8.745913e-3
outer loop
vertex 7.8571427e-1 6.932955e-3 6.932955e-3
vertex 6.932955e-3 6.932955e-3 7.8571427e-1
vertex -4.440892e-16 -3.8857806e-16 -3.8857806e-16
endloop
endfacet
facet normal -9.999235e-1 8.745913e-3 8.745913e-3
outer loop
vertex 6.932955e-3 6.932955e-3 7.8571427e-1
vertex 6.932955e-3 7.8571427e-1 6.932955e-3
vertex -4.440892e-16 -3.8857806e-16 -3.8857806e-16
endloop
endfacet
facet normal 0.0e0 -1.0e0 0.0e0
outer loop
vertex 1.0912286e0 7.8571427e-1 8.695771e-2
vertex 1.3e0 7.8571427e-1 3.2636362e-1
vertex 1.7e0 7.8571427e-1 7.8571427e-1
endloop
endfacet
facet normal 0.0e0 0.0e0 -1.0e0
outer loop
vertex 1.7e0 7.8571427e-1 7.8571427e-1
vertex 1.3e0 3.2636362e-1 7.8571427e-1
vertex 1.0912286e0 8.695771e-2 7.8571427e-1
endloop
endfacet
facet normal 7.4953943e-1 -6.530144e-1 -1.084563e-1
outer loop
vertex 1.7e0 7.8571427e-1 7.8571427e-1
vertex 1.0912286e0 8.695771e-2 7.8571427e-1
vertex 1.2e0 2.9354867e-1 2.9354867e-1
endloop
endfacet
facet normal 2.5892776e-1 -9.097084e-1 -3.246338e-1
outer loop
vertex 1.0912286e0 8.695771e-2 7.8571427e-1
vertex 7.8571427e-1 0.0e0 7.8571427e-1
vertex 1.2e0 2.9354867e-1 2.9354867e-1
endloop
endfacet
facet normal 5.7234037e-1 -8.1998366e-1 -7.299751e-3
outer loop
vertex 7.8571427e-1 0.0e0 7.8571427e-1
vertex 7.8571427e-1 6.932955e-3 6.932955e-3
vertex 1.2e0 2.9354867e-1 2.9354867e-1
endloop
endfacet
facet normal 5.7234037e-1 -7.299751e-3 -8.1998366e-1
outer loop
vertex 7.8571427e-1 6.932955e-3 6.932955e-3
vertex 7.8571427e-1 7.8571427e-1 0.0e0
vertex 1.2e0 2.9354867e-1 2.9354867e-1
endloop
endfacet
facet normal 2.5892776e-1 -3.246338e-1 -9.097084e-1
outer loop
vertex 7.8571427e-1 7.8571427e-1 0.0e0
vertex 1.0912286e0 7.8571427e-1 8.695771e-2
vertex 1.2e0 2.9354867e-1 2.9354867e-1
endloop
endfacet
facet normal 7.4953943e-1 -1.084563e-1 -6.530144e-1
outer loop
vertex 1.0912286e0 7.8571427e-1 8.695771e-2
vertex 1.7e0 7.8571427e-1 7.8571427e-1
vertex 1.2e0 2.9354867e-1 2.9354867e-1
endloop
endfacet
facet normal -1.0e0 0.0e0 0.0e0
outer loop
vertex 7.8571427e-1 1.7e0 7.8571427e-1
vertex 7.8571427e-1 1.3e0 3.2636362e-1
vertex 7.8571427e-1 1.0912286e0 8.695771e-2
endloop
endfacet
facet normal 0.0e0 0.0e0 -1.0e0
outer loop
vertex 8.695771e-2 1.0912286e0 7.8571427e-1
vertex 3.2636362e-1 1.3e0 7.8571427e-1
vertex 7.8571427e-1 1.7e0 7.8571427e-1
endloop
endfacet
facet normal -6.530144e-1 7.4953943e-1 -1.084563e-1
outer loop
vertex 8.695771e-2 1.0912286e0 7.8571427e-1
vertex 7.8571427e-1 1.7e0 7.8571427e-1
vertex 2.9354867e-1 1.2e0 2.9354867e-1
endloop
endfacet
facet normal -1.084563e-1 7.4953943e-1 -6.530144e-1
outer loop
vertex 7.8571427e-1 1.7e0 7.8571427e-1
vertex 7.8571427e-1 1.0912286e0 8.695771e-2
vertex 2.9354867e-1 1.2e0 2.9354867e-1
endloop
endfacet
facet normal -3.246338e-1 2.5892776e-1 -9.097084e-1
outer loop
vertex 7.8571427e-1 1.0912286e0 8.695771e-2
vertex 7.8571427e-1 7.8571427e-1 0.0e0
vertex 2.9354867e-1 1.2e0 2.9354867e-1
endloop
endfacet
facet normal -7.299751e-3 5.7234037e-1 -8.1998366e-1
outer loop
vertex 7.8571427e-1 7.8571427e-1 0.0e0
vertex 6.932955e-3 7.8571427e-1 6.932955e-3
vertex 2.9354867e-1 1.2e0 2.9354867e-1
endloop
endfacet
facet normal -8.1998366e-1 5.7234037e-1 -7.299751e-3
outer loop
vertex 6.932955e-3 7.8571427e-1 6.932955e-3
vertex 0.0e0 7.8571427e-1 7.8571427e-1
vertex 2.9354867e-1 1.2e0 2.9354867e-1
endloop
endfacet
facet normal -9.097084e-1 2.5892776e-1 -3.246338e-1
outer loop
vertex 0.0e0 7.8571427e-1 7.8571427e-1
vertex 8.695771e-2 1.0912286e0 7.8571427e-1
vertex 2.9354867e-1 1.2e0 2.9354867e-1
endloop
endfacet
facet normal 1.0e0 0.0e0 0.0e0
outer loop
vertex 7.8571427e-1 1.0912286e0 8.695771e-2
vertex 7.8571427e-1 1.3e0 3.2636362e-1
vertex 7.8571427e-1 1.7e0 7.8571427e-1
endloop
endfacet
facet normal 4.459367e-16 7.539871e-1 -6.5688926e-1
outer loop
vertex 7.8571427e-1 1.0912286e0 8.695771e-2
vertex 7.8571427e-1 1.7e0 7.8571427e-1
vertex 1.1886783e0 1.7e0 7.8571427e-1
endloop
endfacet
facet normal 7.5414634e-1 4.1555606e-16 -6.5670645e-1
outer loop
vertex 1.7e0 1.1886783e0 7.8571427e-1
vertex 1.7e0 7.8571427e-1 7.8571427e-1
vertex 1.3e0 7.8571427e-1 3.2636362e-1
endloop
endfacet
facet normal 7.536811e-1 1.0693759e-3 -6.5723944e-1
outer loop
vertex 1.7e0 1.1886783e0 7.8571427e-1
vertex 1.3e0 7.8571427e-1 3.2636362e-1
vertex 1.0912286e0 7.8571427e-1 8.695771e-2
endloop
endfacet
facet normal 5.070725e-1 4.7782594e-1 -7.1732825e-1
outer loop
vertex 1.7e0 1.1886783e0 7.8571427e-1
vertex 1.0912286e0 7.8571427e-1 8.695771e-2
vertex 1.1869137e0 1.1869137e0 4.2184305e-1
endloop
endfacet
facet normal 2.2031468e-1 5.9356016e-1 -7.7404636e-1
outer loop
vertex 1.0912286e0 7.8571427e-1 8.695771e-2
vertex 7.8571427e-1 7.8571427e-1 0.0e0
vertex 1.1869137e0 1.1869137e0 4.2184305e-1
endloop
endfacet
facet normal 5.9356016e-1 2.2031468e-1 -7.7404636e-1
outer loop
vertex 7.8571427e-1 7.8571427e-1 0.0e0
vertex 7.8571427e-1 1.0912286e0 8.695771e-2
vertex 1.1869137e0 1.1869137e0 4.2184305e-1
endloop
endfacet
facet normal 4.7782594e-1 5.070725e-1 -7.1732825e-1
outer loop
vertex 7.8571427e-1 1.0912286e0 8.695771e-2
vertex 1.1886783e0 1.7e0 7.8571427e-1
vertex 1.1869137e0 1.1869137e0 4.2184305e-1
endloop
endfacet
facet normal 1.9306126e-1 5.671529e-1 -8.006653e-1
outer loop
vertex 1.1886783e0 1.7e0 7.8571427e-1
vertex 1.5701466e0 1.5701466e0 7.8571427e-1
vertex 1.1869137e0 1.1869137e0 4.2184305e-1
endloop
endfacet
facet normal 5.671529e-1 1.9306126e-1 -8.006653e-1
outer loop
vertex 1.5701466e0 1.5701466e0 7.8571427e-1
vertex 1.7e0 1.1886783e0 7.8571427e-1
vertex 1.1869137e0 1.1869137e0 4.2184305e-1
endloop
endfacet
facet normal -1.0e0 0.0e0 0.0e0
outer loop
vertex 7.8571427e-1 8.695771e-2 1.0912286e0
vertex 7.8571427e-1 3.2636362e-1 1.3e0
vertex 7.8571427e-1 7.8571427e-1 1.7e0
endloop
endfacet
facet normal 0.0e0 -1.0e0 0.0e0
outer loop
vertex 7.8571427e-1 7.8571427e-1 1.7e0
vertex 3.2636362e-1 7.8571427e-1 1.3e0
vertex 8.695771e-2 7.8571427e-1 1.0912286e0
endloop
endfacet
facet normal -6.530144e-1 -1.084563e-1 7.4953943e-1
outer loop
vertex 7.8571427e-1 7.8571427e-1 1.7e0
vertex 8.695771e-2 7.8571427e-1 1.0912286e0
vertex 2.9354867e-1 2.9354867e-1 1.2e0
endloop
endfacet
facet normal -9.097084e-1 -3.246338e-1 2.5892776e-1
outer loop
vertex 8.695771e-2 7.8571427e-1 1.0912286e0
vertex 0.0e0 7.8571427e-1 7.8571427e-1
vertex 2.9354867e-1 2.9354867e-1 1.2e0
endloop
endfacet
facet normal -8.1998366e-1 -7.299751e-3 5.7234037e-1
outer loop
vertex 0.0e0 7.8571427e-1 7.8571427e-1
vertex 6.932955e-3 6.932955e-3 7.8571427e-1
vertex 2.9354867e-1 2.9354867e-1 1.2e0
endloop
endfacet
facet normal -7.299751e-3 -8.1998366e-1 5.7234037e-1
outer loop
vertex 6.932955e-3 6.932955e-3 7.8571427e-1
vertex 7.8571427e-1 0.0e0 7.8571427e-1
vertex 2.9354867e-1 2.9354867e-1 1.2e0
endloop
endfacet
facet normal -3.246338e-1 -9.097084e-1 2.5892776e-1
outer loop
vertex 7.8571427e-1 0.0e0 7.8571427e-1
vertex 7.8571427e-1 8.695771e-2 1.0912286e0
vertex 2.9354867e-1 2.9354867e-1 1.2e0
endloop
endfacet
facet normal -1.084563e-1 -6.530144e-1 7.4953943e-1
outer loop
vertex 7.8571427e-1 8.695771e-2 1.0912286e0
vertex 7.8571427e-1 7.8571427e-1 1.7e0
vertex 2.9354867e-1 2.9354867e-1 1.2e0
endloop
endfacet
facet normal 1.0e0 0.0e0 0.0e0
outer loop
vertex 7.8571427e-1 7.8571427e-1 1.7e0
vertex 7.8571427e-1 3.2636362e-1 1.3e0
vertex 7.8571427e-1 8.695771e-2 1.0912286e0
endloop
endfacet
facet normal 0.0e0 0.0e0 1.0e0
outer loop
vertex 1.0912286e0 8.695771e-2 7.8571427e-1
vertex 1.3e0 3.2636362e-1 7.8571427e-1
vertex 1.7e0 7.8571427e-1 7.8571427e-1
endloop
endfacet
facet normal 7.539871e-1 -6.5688926e-1 4.459367e-16
outer loop
vertex 1.0912286e0 8.695771e-2 7.8571427e-1
vertex 1.7e0 7.8571427e-1 7.8571427e-1
vertex 1.7e0 7.8571427e-1 1.1886783e0
endloop
endfacet
facet normal 4.1546828e-16 -6.5688926e-1 7.539871e-1
outer loop
vertex 1.1886783e0 7.8571427e-1 1.7e0
vertex 7.8571427e-1 7.8571427e-1 1.7e0
vertex 7.8571427e-1 8.695771e-2 1.0912286e0
endloop
endfacet
facet normal 4.7782594e-1 -7.1732825e-1 5.070725e-1
outer loop
vertex 1.1886783e0 7.8571427e-1 1.7e0
vertex 7.8571427e-1 8.695771e-2 1.0912286e0
vertex 1.1869137e0 4.2184305e-1 1.1869137e0
endloop
endfacet
facet normal 5.9356016e-1 -7.7404636e-1 2.2031468e-1
outer loop
vertex 7.8571427e-1 8.695771e-2 1.0912286e0
vertex 7.8571427e-1 0.0e0 7.8571427e-1
vertex 1.1869137e0 4.2184305e-1 1.1869137e0
endloop
endfacet
facet normal 2.2031468e-1 -7.7404636e-1 5.9356016e-1
outer loop
vertex 7.8571427e-1 0.0e0 7.8571427e-1
vertex 1.0912286e0 8.695771e-2 7.8571427e-1
vertex 1.1869137e0 4.2184305e-1 1.1869137e0
endloop
endfacet
facet normal 5.070725e-1 -7.1732825e-1 4.7782594e-1
outer loop
vertex 1.0912286e0 8.695771e-2 7.8571427e-1
vertex 1.7e0 7.8571427e-1 1.1886783e0
vertex 1.1869137e0 4.2184305e-1 1.1869137e0
endloop
endfacet
facet normal 5.671529e-1 -8.006653e-1 1.9306126e-1
outer loop
vertex 1.7e0 7.8571427e-1 1.1886783e0
vertex 1.5701466e0 7.8571427e-1 1.5701466e0
vertex 1.1869137e0 4.2184305e-1 1.1869137e0
endloop
endfacet
facet normal 1.9306126e-1 -8.006653e-1 5.671529e-1
outer loop
vertex 1.5701466e0 7.8571427e-1 1.5701466e0
vertex 1.1886783e0 7.8571427e-1 1.7e0
vertex 1.1869137e0 4.2184305e-1 1.1869137e0
endloop
endfacet
facet normal -6.5670645e-1 7.5414634e-1 4.1555606e-16
outer loop
vertex 7.8571427e-1 1.7e0 1.1886783e0
vertex 7.8571427e-1 1.7e0 7.8571427e-1
vertex 3.2636362e-1 1.3e0 7.8571427e-1
endloop
endfacet
facet normal -6.5723944e-1 7.536811e-1 1.0693759e-3
outer loop
vertex 7.8571427e-1 1.7e0 1.1886783e0
vertex 3.2636362e-1 1.3e0 7.8571427e-1
vertex 8.695771e-2 1.0912286e0 7.8571427e-1
endloop
endfacet
facet normal 0.0e0 1.0e0 0.0e0
outer loop
vertex 8.695771e-2 7.8571427e-1 1.0912286e0
vertex 3.2636362e-1 7.8571427e-1 1.3e0
vertex 7.8571427e-1 7.8571427e-1 1.7e0
endloop
endfacet
facet normal -6.5688926e-1 4.459367e-16 7.539871e-1
outer loop
vertex 8.695771e-2 7.8571427e-1 1.0912286e0
vertex 7.8571427e-1 7.8571427e-1 1.7e0
vertex 7.8571427e-1 1.1886783e0 1.7e0
endloop
endfacet
facet normal -7.1732825e-1 4.7782594e-1 5.070725e-1
outer loop
vertex 8.695771e-2 7.8571427e-1 1.0912286e0
vertex 7.8571427e-1 1.1886783e0 1.7e0
vertex 4.2184305e-1 1.1869137e0 1.1869137e0
endloop
endfacet
facet normal -8.006653e-1 1.9306126e-1 5.671529e-1
outer loop
vertex 7.8571427e-1 1.1886783e0 1.7e0
vertex 7.8571427e-1 1.5701466e0 1.5701466e0
vertex 4.2184305e-1 1.1869137e0 1.1869137e0
endloop
endfacet
facet normal -8.006653e-1 5.671529e-1 1.9306126e-1
outer loop
vertex 7.8571427e-1 1.5701466e0 1.5701466e0
vertex 7.8571427e-1 1.7e0 1.1886783e0
vertex 4.2184305e-1 1.1869137e0 1.1869137e0
endloop
endfacet
facet normal -7.1732825e-1 5.070725e-1 4.7782594e-1
outer loop
vertex 7.8571427e-1 1.7e0 1.1886783e0
vertex 8.695771e-2 1.0912286e0 7.8571427e-1
vertex 4.2184305e-1 1.1869137e0 1.1869137e0
endloop
endfacet
facet normal -7.7404636e-1 2.2031468e-1 5.9356016e-1
outer loop
vertex 8.695771e-2 1.0912286e0 7.8571427e-1
vertex 0.0e0 7.8571427e-1 7.8571427e-1
vertex 4.2184305e-1 1.1869137e0 1.1869137e0
endloop
endfacet
facet normal -7.7404636e-1 5.9356016e-1 2.2031468e-1
outer loop
vertex 0.0e0 7.8571427e-1 7.8571427e-1
vertex 8.695771e-2 7.8571427e-1 1.0912286e0
vertex 4.2184305e-1 1.1869137e0 1.1869137e0
endloop
endfacet
facet normal 7.528575e-1 6.581836e-1 3.6267783e-16
outer loop
vertex 7.8571427e-1 1.7e0 7.8571427e-1
vertex 7.8571427e-1 1.7e0 1.1886783e0
vertex 1.2121851e0 1.2121851e0 1.2121851e0
endloop
endfacet
facet normal 7.290233e-1 6.4797556e-1 2.2057363e-1
outer loop
vertex 7.8571427e-1 1.7e0 1.1886783e0
vertex 7.8571427e-1 1.5701466e0 1.5701466e0
vertex 1.2121851e0 1.2121851e0 1.2121851e0
endloop
endfacet
facet normal 7.290233e-1 2.2057363e-1 6.4797556e-1
outer loop
vertex 7.8571427e-1 1.5701466e0 1.5701466e0
vertex 7.8571427e-1 1.1886783e0 1.7e0
vertex 1.2121851e0 1.2121851e0 1.2121851e0
endloop
endfacet
facet normal 7.528575e-1 3.6267783e-16 6.581836e-1
outer loop
vertex 7.8571427e-1 1.1886783e0 1.7e0
vertex 7.8571427e-1 7.8571427e-1 1.7e0
vertex 1.2121851e0 1.2121851e0 1.2121851e0
endloop
endfacet
facet normal 3.6267783e-16 7.528575e-1 6.581836e-1
outer loop
vertex 7.8571427e-1 7.8571427e-1 1.7e0
vertex 1.1886783e0 7.8571427e-1 1.7e0
vertex 1.2121851e0 1.2121851e0 1.2121851e0
endloop
endfacet
facet normal 2.2057363e-1 7.290233e-1 6.4797556e-1
outer loop
vertex 1.1886783e0 7.8571427e-1 1.7e0
vertex 1.5701466e0 7.8571427e-1 1.5701466e0
vertex 1.2121851e0 1.2121851e0 1.2121851e0
endloop
endfacet
facet normal 6.4797556e-1 7.290233e-1 2.2057363e-1
outer loop
vertex 1.5701466e0 7.8571427e-1 1.5701466e0
vertex 1.7e0 7.8571427e-1 1.1886783e0
vertex 1.2121851e0 1.2121851e0 1.2121851e0
endloop
endfacet
facet normal 6.581836e-1 7.528575e-1 3.6267783e-16
outer loop
vertex 1.7e0 7.8571427e-1 1.1886783e0
vertex 1.7e0 7.8571427e-1 7.8571427e-1
vertex 1.2121851e0 1.2121851e0 1.2121851e0
endloop
endfacet
facet normal 6.581836e-1 3.6267783e-16 7.528575e-1
outer loop
vertex 1.7e0 7.8571427e-1 7.8571427e-1
vertex 1.7e0 1.1886783e0 7.8571427e-1
vertex 1.2121851e0 1.2121851e0 1.2121851e0
endloop
endfacet
facet normal 6.4797556e-1 2.2057363e-1 7.290233e-1
outer loop
vertex 1.7e0 1.1886783e0 7.8571427e-1
vertex 1.5701466e0 1.5701466e0 7.8571427e-1
vertex 1.2121851e0 1.2121851e0 1.2121851e0
endloop
endfacet
facet normal 2.2057363e-1 6.4797556e-1 7.290233e-1
outer loop
vertex 1.5701466e0 1.5701466e0 7.8571427e-1
vertex 1.1886783e0 1.7e0 7.8571427e-1
vertex 1.2121851e0 1.2121851e0 1.2121851e0
endloop
endfacet
facet normal 3.6267783e-16 6.581836e-1 7.528575e-1
outer loop
vertex 1.1886783e0 1.7e0 7.8571427e-1
vertex 7.8571427e-1 1.7e0 7.8571427e-1
vertex 1.2121851e0 1.2121851e0 1.2121851e0
endloop
endfacet
facet normal -7.152339e-1 -1.8319292e-1 -6.744485e-1
outer loop
vertex 1.7285714e0 1.7285714e0 8.0e-1
vertex 1.7285714e0 9.9834365e-1 9.9834365e-1
vertex 1.3304002e0 1.3304002e0 1.3304002e0
endloop
endfacet
facet normal -7.152339e-1 -6.744485e-1 -1.8319292e-1
outer loop
vertex 1.7285714e0 9.9834365e-1 9.9834365e-1
vertex 1.7285714e0 8.0e-1 1.7285714e0
vertex 1.3304002e0 1.3304002e0 1.3304002e0
endloop
endfacet
facet normal -1.8319292e-1 -6.744485e-1 -7.152339e-1
outer loop
vertex 1.7285714e0 8.0e-1 1.7285714e0
vertex 9.9834365e-1 9.9834365e-1 1.7285714e0
vertex 1.3304002e0 1.3304002e0 1.3304002e0
endloop
endfacet
facet normal -6.744485e-1 -1.8319292e-1 -7.152339e-1
outer loop
vertex 9.9834365e-1 9.9834365e-1 1.7285714e0
vertex 8.0e-1 1.7285714e0 1.7285714e0
vertex 1.3304002e0 1.3304002e0 1.3304002e0
endloop
endfacet
facet normal -6.744485e-1 -7.152339e-1 -1.8319292e-1
outer loop
vertex 8.0e-1 1.7285714e0 1.7285714e0
vertex 9.9834365e-1 1.7285714e0 9.9834365e-1
vertex 1.3304002e0 1.3304002e0 1.3304002e0
endloop
endfacet
facet normal -1.8319292e-1 -7.152339e-1 -6.744485e-1
outer loop
vertex 9.9834365e-1 1.7285714e0 9.9834365e-1
vertex 1.7285714e0 1.7285714e0 8.0e-1
vertex 1.3304002e0 1.3304002e0 1.3304002e0
endloop
endfacet
facet normal 5.5945325e-1 -5.860939e-1 -5.860939e-1
outer loop
vertex 1.7285714e0 1.7285714e0 8.0e-1
vertex 2.6714287e0 1.7285714e0 1.7e0
vertex 2.6714287e0 1.7e0 1.7285714e0
endloop
endfacet
facet normal 6.979511e-1 -8.35192e-2 -7.112586e-1
outer loop
vertex 1.7285714e0 1.7285714e0 8.0e-1
vertex 2.6714287e0 1.7e0 1.7285714e0
vertex 2.1e0 1.2173645e0 1.2245075e0
endloop
endfacet
facet normal 6.876871e-1 -7.2043407e-1 -8.978429e-2
outer loop
vertex 2.6714287e0 1.7e0 1.7285714e0
vertex 1.7285714e0 8.0e-1 1.7285714e0
vertex 2.1e0 1.2173645e0 1.2245075e0
endloop
endfacet
facet normal 5.889049e-1 -7.799434e-1 -2.1184732e-1
outer loop
vertex 1.7285714e0 8.0e-1 1.7285714e0
vertex 1.7285714e0 9.9834365e-1 9.9834365e-1
vertex 2.1e0 1.2173645e0 1.2245075e0
endloop
endfacet
facet normal 5.959725e-1 -2.1048497e-1 -7.749277e-1
outer loop
vertex 1.7285714e0 9.9834365e-1 9.9834365e-1
vertex 1.7285714e0 1.7285714e0 8.0e-1
vertex 2.1e0 1.2173645e0 1.2245075e0
endloop
endfacet
facet normal 5.7735026e-1 -5.7735026e-1 -5.7735026e-1
outer loop
vertex 2.6714287e0 1.7e0 1.7285714e0
vertex 2.6714287e0 1.7285714e0 1.7e0
vertex 2.7e0 1.7285714e0 1.7285714e0
endloop
endfacet
facet normal -5.860939e-1 5.5945325e-1 -5.860939e-1
outer loop
vertex 8.0e-1 1.7285714e0 1.7285714e0
vertex 1.7e0 2.6714287e0 1.7285714e0
vertex 1.7285714e0 2.6714287e0 1.7e0
endloop
endfacet
facet normal -7.112586e-1 6.979511e-1 -8.35192e-2
outer loop
vertex 8.0e-1 1.7285714e0 1.7285714e0
vertex 1.7285714e0 2.6714287e0 1.7e0
vertex 1.2245075e0 2.1e0 1.2173645e0
endloop
endfacet
facet normal -8.978429e-2 6.876871e-1 -7.2043407e-1
outer loop
vertex 1.7285714e0 2.6714287e0 1.7e0
vertex 1.7285714e0 1.7285714e0 8.0e-1
vertex 1.2245075e0 2.1e0 1.2173645e0
endloop
endfacet
facet normal -2.1184732e-1 5.889049e-1 -7.799434e-1
outer loop
vertex 1.7285714e0 1.7285714e0 8.0e-1
vertex 9.9834365e-1 1.7285714e0 9.9834365e-1
vertex 1.2245075e0 2.1e0 1.2173645e0
endloop
endfacet
facet normal -7.749277e-1 5.959725e-1 -2.1048497e-1
outer loop
vertex 9.9834365e-1 1.7285714e0 9.9834365e-1
vertex 8.0e-1 1.7285714e0 1.7285714e0
vertex 1.2245075e0 2.1e0 1.2173645e0
endloop
endfacet
facet normal 0.0e0 6.9047576e-1 -7.2335553e-1
outer loop
vertex 1.7285714e0 1.7285714e0 8.0e-1
vertex 1.7285714e0 2.6714287e0 1.7e0
vertex 2.6714287e0 2.6714287e0 1.7e0
endloop
endfacet
facet normal 6.9047576e-1 0.0e0 -7.2335553e-1
outer loop
vertex 1.7285714e0 1.7285714e0 8.0e-1
vertex 2.6714287e0 2.6714287e0 1.7e0
vertex 2.6714287e0 1.7285714e0 1.7e0
endloop
endfacet
facet normal 7.0710677e-1 0.0e0 -7.0710677e-1
outer loop
vertex 2.6714287e0 1.7285714e0 1.7e0
vertex 2.6714287e0 2.6714287e0 1.7e0
vertex 2.7e0 2.6714287e0 1.7285714e0
endloop
endfacet
facet normal 7.0710677e-1 0.0e0 -7.0710677e-1
outer loop
vertex 2.6714287e0 1.7285714e0 1.7e0
vertex 2.7e0 2.6714287e0 1.7285714e0
vertex 2.7e0 1.7285714e0 1.7285714e0
endloop
endfacet
facet normal -5.7735026e-1 5.7735026e-1 -5.7735026e-1
outer loop
vertex 1.7285714e0 2.7e0 1.7285714e0
vertex 1.7285714e0 2.6714287e0 1.7e0
vertex 1.7e0 2.6714287e0 1.7285714e0
endloop
endfacet
facet normal 0.0e0 7.0710677e-1 -7.0710677e-1
outer loop
vertex 1.7285714e0 2.6714287e0 1.7e0
vertex 1.7285714e0 2.7e0 1.7285714e0
vertex 2.6714287e0 2.7e0 1.7285714e0
endloop
endfacet
facet normal 0.0e0 7.0710677e-1 -7.0710677e-1
outer loop
vertex 1.7285714e0 2.6714287e0 1.7e0
vertex 2.6714287e0 2.7e0 1.7285714e0
vertex 2.6714287e0 2.6714287e0 1.7e0
endloop
endfacet
facet normal 5.7735026e-1 5.7735026e-1 -5.7735026e-1
outer loop
vertex 2.6714287e0 2.6714287e0 1.7e0
vertex 2.6714287e0 2.7e0 1.7285714e0
vertex 2.7e0 2.6714287e0 1.7285714e0
endloop
endfacet
facet normal -5.860939e-1 -5.860939e-1 5.5945325e-1
outer loop
vertex 1.7285714e0 8.0e-1 1.7285714e0
vertex 1.7285714e0 1.7e0 2.6714287e0
vertex 1.7e0 1.7285714e0 2.6714287e0
endloop
endfacet
facet normal -8.35192e-2 -7.112586e-1 6.979511e-1
outer loop
vertex 1.7285714e0 8.0e-1 1.7285714e0
vertex 1.7e0 1.7285714e0 2.6714287e0
vertex 1.2173645e0 1.2245075e0 2.1e0
endloop
endfacet
facet normal -7.2043407e-1 -8.978429e-2 6.876871e-1
outer loop
vertex 1.7e0 1.7285714e0 2.6714287e0
vertex 8.0e-1 1.7285714e0 1.7285714e0
vertex 1.2173645e0 1.2245075e0 2.1e0
endloop
endfacet
facet normal -7.799434e-1 -2.1184732e-1 5.889049e-1
outer loop
vertex 8.0e-1 1.7285714e0 1.7285714e0
vertex 9.9834365e-1 9.9834365e-1 1.7285714e0
vertex 1.2173645e0 1.2245075e0 2.1e0
endloop
endfacet
facet normal -2.1048497e-1 -7.749277e-1 5.959725e-1
outer loop
vertex 9.9834365e-1 9.9834365e-1 1.7285714e0
vertex 1.7285714e0 8.0e-1 1.7285714e0
vertex 1.2173645e0 1.2245075e0 2.1e0
endloop
endfacet
facet normal 5.6819046e-1 -5.9524715e-1 5.6819046e-1
outer loop
vertex 1.7285714e0 1.7e0 2.6714287e0
vertex 1.7285714e0 8.0e-1 1.7285714e0
vertex 2.6714287e0 1.7e0 1.7285714e0
endloop
endfacet
facet normal 0.0e0 -1.0e0 0.0e0
outer loop
vertex 1.7285714e0 1.7e0 2.6714287e0
vertex 2.6714287e0 1.7e0 1.7285714e0
vertex 2.6714287e0 1.7e0 2.6714287e0
endloop
endfacet
facet normal 7.0710677e-1 -7.0710677e-1 0.0e0
outer loop
vertex 2.6714287e0 1.7e0 2.6714287e0
vertex 2.6714287e0 1.7e0 1.7285714e0
vertex 2.7e0 1.7285714e0 1.7285714e0
endloop
endfacet
facet normal 7.0710677e-1 -7.0710677e-1 0.0e0
outer loop
vertex 2.6714287e0 1.7e0 2.6714287e0
vertex 2.7e0 1.7285714e0 1.7285714e0
vertex 2.7e0 1.7285714e0 2.6714287e0
endloop
endfacet
facet normal -7.2335553e-1 0.0e0 6.9047576e-1
outer loop
vertex 8.0e-1 1.7285714e0 1.7285714e0
vertex 1.7e0 1.7285714e0 2.6714287e0
vertex 1.7e0 2.6714287e0 2.6714287e0
endloop
endfacet
facet normal -7.2335553e-1 6.9047576e-1 0.0e0
outer loop
vertex 8.0e-1 1.7285714e0 1.7285714e0
vertex 1.7e0 2.6714287e0 2.6714287e0
vertex 1.7e0 2.6714287e0 1.7285714e0
endloop
endfacet
facet normal 1.0e0 0.0e0 0.0e0
outer loop
vertex 2.7e0 1.7285714e0 2.6714287e0
vertex 2.7e0 1.7285714e0 1.7285714e0
vertex 2.7e0 2.6714287e0 1.7285714e0
endloop
endfacet
facet normal 5.9524715e-1 -5.6819046e-1 -5.6819046e-1
outer loop
vertex 2.7e0 1.7285714e0 2.6714287e0
vertex 2.7e0 2.6714287e0 1.7285714e0
vertex 3.6e0 2.6714287e0 2.6714287e0
endloop
endfacet
facet normal -7.0710677e-1 7.0710677e-1 0.0e0
outer loop
vertex 1.7285714e0 2.7e0 2.6714287e0
vertex 1.7285714e0 2.7e0 1.7285714e0
vertex 1.7e0 2.6714287e0 1.7285714e0
endloop
endfacet
facet normal -7.0710677e-1 7.0710677e-1 0.0e0
outer loop
vertex 1.7285714e0 2.7e0 2.6714287e0
vertex 1.7e0 2.6714287e0 1.7285714e0
vertex 1.7e0 2.6714287e0 2.6714287e0
endloop
endfacet
facet normal -6.9047576e-1 7.2335553e-1 0.0e0
outer loop
vertex 1.7285714e0 2.7e0 1.7285714e0
vertex 1.7285714e0 2.7e0 2.6714287e0
vertex 2.6714287e0 3.6e0 2.6714287e0
endloop
endfacet
facet normal 0.0e0 7.2335553e-1 -6.9047576e-1
outer loop
vertex 1.7285714e0 2.7e0 1.7285714e0
vertex 2.6714287e0 3.6e0 2.6714287e0
vertex 2.6714287e0 2.7e0 1.7285714e0
endloop
endfacet
facet normal 5.860939e-1 5.860939e-1 -5.5945325e-1
outer loop
vertex 3.6e0 2.6714287e0 2.6714287e0
vertex 2.7e0 2.6714287e0 1.7285714e0
vertex 2.6714287e0 2.7e0 1.7285714e0
endloop
endfacet
facet normal 7.112586e-1 8.35192e-2 -6.979511e-1
outer loop
vertex 3.6e0 2.6714287e0 2.6714287e0
vertex 2.6714287e0 2.7e0 1.7285714e0
vertex 3.1754925e0 3.1826355e0 2.3e0
endloop
endfacet
facet normal 8.978429e-2 7.2043407e-1 -6.876871e-1
outer loop
vertex 2.6714287e0 2.7e0 1.7285714e0
vertex 2.6714287e0 3.6e0 2.6714287e0
vertex 3.1754925e0 3.1826355e0 2.3e0
endloop
endfacet
facet normal 2.1184732e-1 7.799434e-1 -5.889049e-1
outer loop
vertex 2.6714287e0 3.6e0 2.6714287e0
vertex 3.4016564e0 3.4016564e0 2.6714287e0
vertex 3.1754925e0 3.1826355e0 2.3e0
endloop
endfacet
facet normal 7.749277e-1 2.1048497e-1 -5.959725e-1
outer loop
vertex 3.4016564e0 3.4016564e0 2.6714287e0
vertex 3.6e0 2.6714287e0 2.6714287e0
vertex 3.1754925e0 3.1826355e0 2.3e0
endloop
endfacet
facet normal -5.7735026e-1 -5.7735026e-1 5.7735026e-1
outer loop
vertex 1.7285714e0 1.7e0 2.6714287e0
vertex 1.7285714e0 1.7285714e0 2.7e0
vertex 1.7e0 1.7285714e0 2.6714287e0
endloop
endfacet
facet normal 0.0e0 -7.0710677e-1 7.0710677e-1
outer loop
vertex 1.7285714e0 1.7285714e0 2.7e0
vertex 1.7285714e0 1.7e0 2.6714287e0
vertex 2.6714287e0 1.7e0 2.6714287e0
endloop
endfacet
facet normal 0.0e0 -7.0710677e-1 7.0710677e-1
outer loop
vertex 1.7285714e0 1.7285714e0 2.7e0
vertex 2.6714287e0 1.7e0 2.6714287e0
vertex 2.6714287e0 1.7285714e0 2.7e0
endloop
endfacet
facet normal 5.7735026e-1 -5.7735026e-1 5.7735026e-1
outer loop
vertex 2.6714287e0 1.7285714e0 2.7e0
vertex 2.6714287e0 1.7e0 2.6714287e0
vertex 2.7e0 1.7285714e0 2.6714287e0
endloop
endfacet
facet normal -7.0710677e-1 0.0e0 7.0710677e-1
outer loop
vertex 1.7285714e0 1.7285714e0 2.7e0
vertex 1.7285714e0 2.6714287e0 2.7e0
vertex 1.7e0 2.6714287e0 2.6714287e0
endloop
endfacet
facet normal -7.0710677e-1 0.0e0 7.0710677e-1
outer loop
vertex 1.7285714e0 1.7285714e0 2.7e0
vertex 1.7e0 2.6714287e0 2.6714287e0
vertex 1.7e0 1.7285714e0 2.6714287e0
endloop
endfacet
facet normal 0.0e0 0.0e0 1.0e0
outer loop
vertex 1.7285714e0 2.6714287e0 2.7e0
vertex 1.7285714e0 1.7285714e0 2.7e0
vertex 2.6714287e0 1.7285714e0 2.7e0
endloop
endfacet
facet normal -5.6819046e-1 -5.6819046e-1 5.9524715e-1
outer loop
vertex 1.7285714e0 2.6714287e0 2.7e0
vertex 2.6714287e0 1.7285714e0 2.7e0
vertex 2.6714287e0 2.6714287e0 3.6e0
endloop
endfacet
facet normal 5.860939e-1 -5.5945325e-1 5.860939e-1
outer loop
vertex 2.6714287e0 2.6714287e0 3.6e0
vertex 2.6714287e0 1.7285714e0 2.7e0
vertex 2.7e0 1.7285714e0 2.6714287e0
endloop
endfacet
facet normal 8.35192e-2 -6.979511e-1 7.112586e-1
outer loop
vertex 2.6714287e0 2.6714287e0 3.6e0
vertex 2.7e0 1.7285714e0 2.6714287e0
vertex 3.1826355e0 2.3e0 3.1754925e0
endloop
endfacet
facet normal 7.2043407e-1 -6.876871e-1 8.978429e-2
outer loop
vertex 2.7e0 1.7285714e0 2.6714287e0
vertex 3.6e0 2.6714287e0 2.6714287e0
vertex 3.1826355e0 2.3e0 3.1754925e0
endloop
endfacet
facet normal 7.799434e-1 -5.889049e-1 2.1184732e-1
outer loop
vertex 3.6e0 2.6714287e0 2.6714287e0
vertex 3.4016564e0 2.6714287e0 3.4016564e0
vertex 3.1826355e0 2.3e0 3.1754925e0
endloop
endfacet
facet normal 2.1048497e-1 -5.959725e-1 7.749277e-1
outer loop
vertex 3.4016564e0 2.6714287e0 3.4016564e0
vertex 2.6714287e0 2.6714287e0 3.6e0
vertex 3.1826355e0 2.3e0 3.1754925e0
endloop
endfacet
facet normal -5.7735026e-1 5.7735026e-1 5.7735026e-1
outer loop
vertex 1.7285714e0 2.6714287e0 2.7e0
vertex 1.7285714e0 2.7e0 2.6714287e0
vertex 1.7e0 2.6714287e0 2.6714287e0
endloop
endfacet
facet normal -5.5945325e-1 5.860939e-1 5.860939e-1
outer loop
vertex 1.7285714e0 2.7e0 2.6714287e0
vertex 1.7285714e0 2.6714287e0 2.7e0
vertex 2.6714287e0 2.6714287e0 3.6e0
endloop
endfacet
facet normal -6.979511e-1 8.35192e-2 7.112586e-1
outer loop
vertex 1.7285714e0 2.7e0 2.6714287e0
vertex 2.6714287e0 2.6714287e0 3.6e0
vertex 2.3e0 3.1826355e0 3.1754925e0
endloop
endfacet
facet normal -5.959725e-1 2.1048497e-1 7.749277e-1
outer loop
vertex 2.6714287e0 2.6714287e0 3.6e0
vertex 2.6714287e0 3.4016564e0 3.4016564e0
vertex 2.3e0 3.1826355e0 3.1754925e0
endloop
endfacet
facet normal -5.889049e-1 7.799434e-1 2.1184732e-1
outer loop
vertex 2.6714287e0 3.4016564e0 3.4016564e0
vertex 2.6714287e0 3.6e0 2.6714287e0
vertex 2.3e0 3.1826355e0 3.1754925e0
endloop
endfacet
facet normal -6.876871e-1 7.2043407e-1 8.978429e-2
outer loop
vertex 2.6714287e0 3.6e0 2.6714287e0
vertex 1.7285714e0 2.7e0 2.6714287e0
vertex 2.3e0 3.1826355e0 3.1754925e0
endloop
endfacet
facet normal 7.152339e-1 6.744485e-1 1.8319292e-1
outer loop
vertex 2.6714287e0 3.6e0 2.6714287e0
vertex 2.6714287e0 3.4016564e0 3.4016564e0
vertex 3.0695996e0 3.0695996e0 3.0695996e0
endloop
endfacet
facet normal 7.152339e-1 1.8319292e-1 6.744485e-1
outer loop
vertex 2.6714287e0 3.4016564e0 3.4016564e0
vertex 2.6714287e0 2.6714287e0 3.6e0
vertex 3.0695996e0 3.0695996e0 3.0695996e0
endloop
endfacet
facet normal 1.8319292e-1 7.152339e-1 6.744485e-1
outer loop
vertex 2.6714287e0 2.6714287e0 3.6e0
vertex 3.4016564e0 2.6714287e0 3.4016564e0
vertex 3.0695996e0 3.0695996e0 3.0695996e0
endloop
endfacet
facet normal 6.744485e-1 7.152339e-1 1.8319292e-1
outer loop
vertex 3.4016564e0 2.6714287e0 3.4016564e0
vertex 3.6e0 2.6714287e0 2.6714287e0
vertex 3.0695996e0 3.0695996e0 3.0695996e0
endloop
endfacet
facet normal 6.744485e-1 1.8319292e-1 7.152339e-1
outer loop
vertex 3.6e0 2.6714287e0 2.6714287e0
vertex 3.4016564e0 3.4016564e0 2.6714287e0
vertex 3.0695996e0 3.0695996e0 3.0695996e0
endloop
endfacet
facet normal 1.8319292e-1 6.744485e-1 7.152339e-1
outer loop
vertex 3.4016564e0 3.4016564e0 2.6714287e0
vertex 2.6714287e0 3.6e0 2.6714287e0
vertex 3.0695996e0 3.0695996e0 3.0695996e0
endloop
endfacet
facet normal -7.528575e-1 7.2535566e-16 -6.581836e-1
outer loop
vertex 3.6142857e0 3.6142857e0 2.7e0
vertex 3.6142857e0 3.2113218e0 2.7e0
vertex 3.187815e0 3.187815e0 3.187815e0
endloop
endfacet
facet normal -7.290233e-1 -2.2057363e-1 -6.4797556e-1
outer loop
vertex 3.6142857e0 3.2113218e0 2.7e0
vertex 3.6142857e0 2.8298535e0 2.8298535e0
vertex 3.187815e0 3.187815e0 3.187815e0
endloop
endfacet
facet normal -7.290233e-1 -6.4797556e-1 -2.2057363e-1
outer loop
vertex 3.6142857e0 2.8298535e0 2.8298535e0
vertex 3.6142857e0 2.7e0 3.2113218e0
vertex 3.187815e0 3.187815e0 3.187815e0
endloop
endfacet
facet normal -7.528575e-1 -6.581836e-1 7.2535566e-16
outer loop
vertex 3.6142857e0 2.7e0 3.2113218e0
vertex 3.6142857e0 2.7e0 3.6142857e0
vertex 3.187815e0 3.187815e0 3.187815e0
endloop
endfacet
facet normal 7.2535566e-16 -6.581836e-1 -7.528575e-1
outer loop
vertex 3.6142857e0 2.7e0 3.6142857e0
vertex 3.2113218e0 2.7e0 3.6142857e0
vertex 3.187815e0 3.187815e0 3.187815e0
endloop
endfacet
facet normal -2.2057363e-1 -6.4797556e-1 -7.290233e-1
outer loop
vertex 3.2113218e0 2.7e0 3.6142857e0
vertex 2.8298535e0 2.8298535e0 3.6142857e0
vertex 3.187815e0 3.187815e0 3.187815e0
endloop
endfacet
facet normal -6.4797556e-1 -2.2057363e-1 -7.290233e-1
outer loop
vertex 2.8298535e0 2.8298535e0 3.6142857e0
vertex 2.7e0 3.2113218e0 3.6142857e0
vertex 3.187815e0 3.187815e0 3.187815e0
endloop
endfacet
facet normal -6.581836e-1 7.2535566e-16 -7.528575e-1
outer loop
vertex 2.7e0 3.2113218e0 3.6142857e0
vertex 2.7e0 3.6142857e0 3.6142857e0
vertex 3.187815e0 3.187815e0 3.187815e0
endloop
endfacet
facet normal -6.581836e-1 -7.528575e-1 7.2535566e-16
outer loop
vertex 2.7e0 3.6142857e0 3.6142857e0
vertex 2.7e0 3.6142857e0 3.2113218e0
vertex 3.187815e0 3.187815e0 3.187815e0
endloop
endfacet
facet normal -6.4797556e-1 -7.290233e-1 -2.2057363e-1
outer loop
vertex 2.7e0 3.6142857e0 3.2113218e0
vertex 2.8298535e0 3.6142857e0 2.8298535e0
vertex 3.187815e0 3.187815e0 3.187815e0
endloop
endfacet
facet normal -2.2057363e-1 -7.290233e-1 -6.4797556e-1
outer loop
vertex 2.8298535e0 3.6142857e0 2.8298535e0
vertex 3.2113218e0 3.6142857e0 2.7e0
vertex 3.187815e0 3.187815e0 3.187815e0
endloop
endfacet
facet normal 7.2535566e-16 -7.528575e-1 -6.581836e-1
outer loop
vertex 3.2113218e0 3.6142857e0 2.7e0
vertex 3.6142857e0 3.6142857e0 2.7e0
vertex 3.187815e0 3.187815e0 3.187815e0
endloop
endfacet
facet normal 6.9047576e-1 7.971789e-16 -7.2335553e-1
outer loop
vertex 3.6142857e0 3.2113218e0 2.7e0
vertex 3.6142857e0 3.6142857e0 2.7e0
vertex 4.5571427e0 3.6142857e0 3.6e0
endloop
endfacet
facet normal 6.988965e-1 -5.057389e-1 -5.057389e-1
outer loop
vertex 3.6142857e0 3.2113218e0 2.7e0
vertex 4.5571427e0 3.6142857e0 3.6e0
vertex 4.5571427e0 3.6e0 3.6142857e0
endloop
endfacet
facet normal 6.9047576e-1 -7.2335553e-1 8.454928e-16
outer loop
vertex 4.5571427e0 3.6e0 3.6142857e0
vertex 3.6142857e0 2.7e0 3.6142857e0
vertex 3.6142857e0 2.7e0 3.2113218e0
endloop
endfacet
facet normal 7.2128195e-1 -6.556933e-1 -2.232008e-1
outer loop
vertex 4.5571427e0 3.6e0 3.6142857e0
vertex 3.6142857e0 2.7e0 3.2113218e0
vertex 3.6142857e0 2.8298535e0 2.8298535e0
endloop
endfacet
facet normal 7.403287e-1 -6.023595e-1 -2.984568e-1
outer loop
vertex 4.5571427e0 3.6e0 3.6142857e0
vertex 3.6142857e0 2.8298535e0 2.8298535e0
vertex 3.981904e0 3.1973698e0 3.0e0
endloop
endfacet
facet normal 6.052356e-1 -2.5652257e-1 -7.535822e-1
outer loop
vertex 3.6142857e0 2.8298535e0 2.8298535e0
vertex 3.6142857e0 3.2113218e0 2.7e0
vertex 3.981904e0 3.1973698e0 3.0e0
endloop
endfacet
facet normal 6.172726e-1 2.5410128e-1 -7.4458516e-1
outer loop
vertex 3.6142857e0 3.2113218e0 2.7e0
vertex 4.5571427e0 3.6e0 3.6142857e0
vertex 3.981904e0 3.1973698e0 3.0e0
endloop
endfacet
facet normal 3.5110775e-1 -6.620889e-1 -6.620889e-1
outer loop
vertex 4.5571427e0 3.6e0 3.6142857e0
vertex 4.5571427e0 3.6142857e0 3.6e0
vertex 4.5840816e0 3.6142857e0 3.6142857e0
endloop
endfacet
facet normal 8.454928e-16 6.9047576e-1 -7.2335553e-1
outer loop
vertex 3.6142857e0 4.5571427e0 3.6e0
vertex 3.6142857e0 3.6142857e0 2.7e0
vertex 3.2113218e0 3.6142857e0 2.7e0
endloop
endfacet
facet normal -2.232008e-1 7.2128195e-1 -6.556933e-1
outer loop
vertex 3.6142857e0 4.5571427e0 3.6e0
vertex 3.2113218e0 3.6142857e0 2.7e0
vertex 2.8298535e0 3.6142857e0 2.8298535e0
endloop
endfacet
facet normal -6.526021e-1 7.2440356e-1 -2.2214854e-1
outer loop
vertex 3.6142857e0 4.5571427e0 3.6e0
vertex 2.8298535e0 3.6142857e0 2.8298535e0
vertex 2.7e0 3.6142857e0 3.2113218e0
endloop
endfacet
facet normal -7.179004e-1 6.9614583e-1 8.391165e-16
outer loop
vertex 3.6142857e0 4.5571427e0 3.6e0
vertex 2.7e0 3.6142857e0 3.2113218e0
vertex 2.7e0 3.6142857e0 3.6142857e0
endloop
endfacet
facet normal -5.860939e-1 5.5945325e-1 -5.860939e-1
outer loop
vertex 3.6142857e0 4.5571427e0 3.6e0
vertex 2.7e0 3.6142857e0 3.6142857e0
vertex 3.6e0 4.5571427e0 3.6142857e0
endloop
endfacet
facet normal 0.0e0 6.9047576e-1 -7.2335553e-1
outer loop
vertex 3.6142857e0 3.6142857e0 2.7e0
vertex 3.6142857e0 4.5571427e0 3.6e0
vertex 4.5571427e0 4.5571427e0 3.6e0
endloop
endfacet
facet normal 6.9047576e-1 0.0e0 -7.2335553e-1
outer loop
vertex 3.6142857e0 3.6142857e0 2.7e0
vertex 4.5571427e0 4.5571427e0 3.6e0
vertex 4.5571427e0 3.6142857e0 3.6e0
endloop
endfacet
facet normal 4.6850264e-1 0.0e0 -8.8346213e-1
outer loop
vertex 4.5571427e0 3.6142857e0 3.6e0
vertex 4.5571427e0 4.5571427e0 3.6e0
vertex 4.5840816e0 4.5571427e0 3.6142857e0
endloop
endfacet
facet normal 4.6850264e-1 0.0e0 -8.8346213e-1
outer loop
vertex 4.5571427e0 3.6142857e0 3.6e0
vertex 4.5840816e0 4.5571427e0 3.6142857e0
vertex 4.5840816e0 3.6142857e0 3.6142857e0
endloop
endfacet
facet normal -6.620889e-1 3.5110775e-1 -6.620889e-1
outer loop
vertex 3.6142857e0 4.5840816e0 3.6142857e0
vertex 3.6142857e0 4.5571427e0 3.6e0
vertex 3.6e0 4.5571427e0 3.6142857e0
endloop
endfacet
facet normal 0.0e0 4.6850264e-1 -8.8346213e-1
outer loop
vertex 3.6142857e0 4.5571427e0 3.6e0
vertex 3.6142857e0 4.5840816e0 3.6142857e0
vertex 4.5571427e0 4.5840816e0 3.6142857e0
endloop
endfacet
facet normal 0.0e0 4.6850264e-1 -8.8346213e-1
outer loop
vertex 3.6142857e0 4.5571427e0 3.6e0
vertex 4.5571427e0 4.5840816e0 3.6142857e0
vertex 4.5571427e0 4.5571427e0 3.6e0
endloop
endfacet
facet normal 4.2425022e-1 4.2425022e-1 -8.000147e-1
outer loop
vertex 4.5571427e0 4.5571427e0 3.6e0
vertex 4.5571427e0 4.5840816e0 3.6142857e0
vertex 4.5840816e0 4.5571427e0 3.6142857e0
endloop
endfacet
facet normal -5.860939e-1 -5.860939e-1 5.5945325e-1
outer loop
vertex 3.6142857e0 2.7e0 3.6142857e0
vertex 3.6142857e0 3.6e0 4.5571427e0
vertex 3.6e0 3.6142857e0 4.5571427e0
endloop
endfacet
facet normal -7.2335553e-1 8.454928e-16 6.9047576e-1
outer loop
vertex 3.6e0 3.6142857e0 4.5571427e0
vertex 2.7e0 3.6142857e0 3.6142857e0
vertex 2.7e0 3.2113218e0 3.6142857e0
endloop
endfacet
facet normal -6.556933e-1 -2.232008e-1 7.2128195e-1
outer loop
vertex 3.6e0 3.6142857e0 4.5571427e0
vertex 2.7e0 3.2113218e0 3.6142857e0
vertex 2.8298535e0 2.8298535e0 3.6142857e0
endloop
endfacet
facet normal -2.2214854e-1 -6.526021e-1 7.2440356e-1
outer loop
vertex 3.6e0 3.6142857e0 4.5571427e0
vertex 2.8298535e0 2.8298535e0 3.6142857e0
vertex 3.2113218e0 2.7e0 3.6142857e0
endloop
endfacet
facet normal 8.391165e-16 -7.179004e-1 6.9614583e-1
outer loop
vertex 3.6e0 3.6142857e0 4.5571427e0
vertex 3.2113218e0 2.7e0 3.6142857e0
vertex 3.6142857e0 2.7e0 3.6142857e0
endloop
endfacet
facet normal 5.6819046e-1 -5.9524715e-1 5.6819046e-1
outer loop
vertex 3.6142857e0 3.6e0 4.5571427e0
vertex 3.6142857e0 2.7e0 3.6142857e0
vertex 4.5571427e0 3.6e0 3.6142857e0
endloop
endfacet
facet normal 0.0e0 -1.0e0 0.0e0
outer loop
vertex 3.6142857e0 3.6e0 4.5571427e0
vertex 4.5571427e0 3.6e0 3.6142857e0
vertex 4.5571427e0 3.6e0 4.5571427e0
endloop
endfacet
facet normal 4.6850264e-1 -8.8346213e-1 0.0e0
outer loop
vertex 4.5571427e0 3.6e0 4.5571427e0
vertex 4.5571427e0 3.6e0 3.6142857e0
vertex 4.5840816e0 3.6142857e0 3.6142857e0
endloop
endfacet
facet normal 4.6850264e-1 -8.8346213e-1 0.0e0
outer loop
vertex 4.5571427e0 3.6e0 4.5571427e0
vertex 4.5840816e0 3.6142857e0 3.6142857e0
vertex 4.5840816e0 3.6142857e0 4.5571427e0
endloop
endfacet
facet normal -7.2335553e-1 0.0e0 6.9047576e-1
outer loop
vertex 2.7e0 3.6142857e0 3.6142857e0
vertex 3.6e0 3.6142857e0 4.5571427e0
vertex 3.6e0 4.5571427e0 4.5571427e0
endloop
endfacet
facet normal -7.2335553e-1 6.9047576e-1 0.0e0
outer loop
vertex 2.7e0 3.6142857e0 3.6142857e0
vertex 3.6e0 4.5571427e0 4.5571427e0
vertex 3.6e0 4.5571427e0 3.6142857e0
endloop
endfacet
facet normal 1.0e0 0.0e0 0.0e0
outer loop
vertex 4.5840816e0 3.6142857e0 4.5571427e0
vertex 4.5840816e0 3.6142857e0 3.6142857e0
vertex 4.5840816e0 4.5571427e0 3.6142857e0
endloop
endfacet
facet normal 5.885055e-1 -5.7169104e-1 -5.7169104e-1
outer loop
vertex 4.5840816e0 3.6142857e0 4.5571427e0
vertex 4.5840816e0 4.5571427e0 3.6142857e0
vertex 5.5e0 4.5571427e0 4.5571427e0
endloop
endfacet
facet normal -8.8346213e-1 4.6850264e-1 0.0e0
outer loop
vertex 3.6142857e0 4.5840816e0 4.5571427e0
vertex 3.6142857e0 4.5840816e0 3.6142857e0
vertex 3.6e0 4.5571427e0 3.6142857e0
endloop
endfacet
facet normal -8.8346213e-1 4.6850264e-1 0.0e0
outer loop
vertex 3.6142857e0 4.5840816e0 4.5571427e0
vertex 3.6e0 4.5571427e0 3.6142857e0
vertex 3.6e0 4.5571427e0 4.5571427e0
endloop
endfacet
facet normal -6.967857e-1 7.172794e-1 0.0e0
outer loop
vertex 3.6142857e0 4.5840816e0 3.6142857e0
vertex 3.6142857e0 4.5840816e0 4.5571427e0
vertex 4.5571427e0 5.5e0 4.5571427e0
endloop
endfacet
facet normal 0.0e0 7.172794e-1 -6.967857e-1
outer loop
vertex 3.6142857e0 4.5840816e0 3.6142857e0
vertex 4.5571427e0 5.5e0 4.5571427e0
vertex 4.5571427e0 4.5840816e0 3.6142857e0
endloop
endfacet
facet normal 0.0e0 7.172794e-1 -6.967857e-1
outer loop
vertex 4.5571427e0 4.5840816e0 3.6142857e0
vertex 4.5571427e0 5.5e0 4.5571427e0
vertex 5.5e0 5.5e0 4.5571427e0
endloop
endfacet
facet normal 7.0710677e-1 0.0e0 -7.0710677e-1
outer loop
vertex 4.5571427e0 4.5840816e0 3.6142857e0
vertex 5.5e0 5.5e0 4.5571427e0
vertex 5.5e0 4.5571427e0 4.5571427e0
endloop
endfacet
facet normal 5.8284783e-1 5.8284783e-1 -5.66195e-1
outer loop
vertex 4.5571427e0 4.5840816e0 3.6142857e0
vertex 5.5e0 4.5571427e0 4.5571427e0
vertex 4.5840816e0 4.5571427e0 3.6142857e0
endloop
endfacet
facet normal -6.620889e-1 -6.620889e-1 3.5110775e-1
outer loop
vertex 3.6142857e0 3.6e0 4.5571427e0
vertex 3.6142857e0 3.6142857e0 4.5840816e0
vertex 3.6e0 3.6142857e0 4.5571427e0
endloop
endfacet
facet normal 0.0e0 -8.8346213e-1 4.6850264e-1
outer loop
vertex 3.6142857e0 3.6142857e0 4.5840816e0
vertex 3.6142857e0 3.6e0 4.5571427e0
vertex 4.5571427e0 3.6e0 4.5571427e0
endloop
endfacet
facet normal 0.0e0 -8.8346213e-1 4.6850264e-1
outer loop
vertex 3.6142857e0 3.6142857e0 4.5840816e0
vertex 4.5571427e0 3.6e0 4.5571427e0
vertex 4.5571427e0 3.6142857e0 4.5840816e0
endloop
endfacet
facet normal 4.2425022e-1 -8.000147e-1 4.2425022e-1
outer loop
vertex 4.5571427e0 3.6142857e0 4.5840816e0
vertex 4.5571427e0 3.6e0 4.5571427e0
vertex 4.5840816e0 3.6142857e0 4.5571427e0
endloop
endfacet
facet normal -8.8346213e-1 0.0e0 4.6850264e-1
outer loop
vertex 3.6142857e0 3.6142857e0 4.5840816e0
vertex 3.6142857e0 4.5571427e0 4.5840816e0
vertex 3.6e0 4.5571427e0 4.5571427e0
endloop
endfacet
facet normal -8.8346213e-1 0.0e0 4.6850264e-1
outer loop
vertex 3.6142857e0 3.6142857e0 4.5840816e0
vertex 3.6e0 4.5571427e0 4.5571427e0
vertex 3.6e0 3.6142857e0 4.5571427e0
endloop
endfacet
facet normal 0.0e0 0.0e0 1.0e0
outer loop
vertex 3.6142857e0 4.5571427e0 4.5840816e0
vertex 3.6142857e0 3.6142857e0 4.5840816e0
vertex 4.5571427e0 3.6142857e0 4.5840816e0
endloop
endfacet
facet normal -5.7169104e-1 -5.7169104e-1 5.885055e-1
outer loop
vertex 3.6142857e0 4.5571427e0 4.5840816e0
vertex 4.5571427e0 3.6142857e0 4.5840816e0
vertex 4.5571427e0 4.5571427e0 5.5e0
endloop
endfacet
facet normal 5.8284783e-1 -5.66195e-1 5.8284783e-1
outer loop
vertex 4.5571427e0 4.5571427e0 5.5e0
vertex 4.5571427e0 3.6142857e0 4.5840816e0
vertex 4.5840816e0 3.6142857e0 4.5571427e0
endloop
endfacet
facet normal 7.172794e-1 -6.967857e-1 0.0e0
outer loop
vertex 4.5840816e0 3.6142857e0 4.5571427e0
vertex 5.5e0 4.5571427e0 4.5571427e0
vertex 5.5e0 4.5571427e0 5.5e0
endloop
endfacet
facet normal 0.0e0 -7.0710677e-1 7.0710677e-1
outer loop
vertex 4.5840816e0 3.6142857e0 4.5571427e0
vertex 5.5e0 4.5571427e0 5.5e0
vertex 4.5571427e0 4.5571427e0 5.5e0
endloop
endfacet
facet normal -8.000147e-1 4.2425022e-1 4.2425022e-1
outer loop
vertex 3.6142857e0 4.5571427e0 4.5840816e0
vertex 3.6142857e0 4.5840816e0 4.5571427e0
vertex 3.6e0 4.5571427e0 4.5571427e0
endloop
endfacet
facet normal -5.66195e-1 5.8284783e-1 5.8284783e-1
outer loop
vertex 3.6142857e0 4.5840816e0 4.5571427e0
vertex 3.6142857e0 4.5571427e0 4.5840816e0
vertex 4.5571427e0 4.5571427e0 5.5e0
endloop
endfacet
facet normal -7.0710677e-1 0.0e0 7.0710677e-1
outer loop
vertex 3.6142857e0 4.5840816e0 4.5571427e0
vertex 4.5571427e0 4.5571427e0 5.5e0
vertex 4.5571427e0 5.5e0 5.5e0
endloop
endfacet
facet normal -6.967857e-1 7.172794e-1 0.0e0
outer loop
vertex 3.6142857e0 4.5840816e0 4.5571427e0
vertex 4.5571427e0 5.5e0 5.5e0
vertex 4.5571427e0 5.5e0 4.5571427e0
endloop
endfacet
facet normal 8.5980326e-1 -5.106255e-1 0.0e0
outer loop
vertex 5.5e0 4.5571427e0 5.5e0
vertex 5.5e0 4.5571427e0 4.5571427e0
vertex 5.8238096e0 5.1023808e0 5.1023808e0
endloop
endfacet
facet normal 8.5980326e-1 0.0e0 -5.106255e-1
outer loop
vertex 5.5e0 4.5571427e0 4.5571427e0
vertex 5.5e0 5.5e0 4.5571427e0
vertex 5.8238096e0 5.1023808e0 5.1023808e0
endloop
endfacet
facet normal 5.962096e-1 -4.3751213e-1 -6.7313987e-1
outer loop
vertex 5.5e0 5.5e0 4.5571427e0
vertex 6.0e0 5.5e0 5.0e0
vertex 5.8238096e0 5.1023808e0 5.1023808e0
endloop
endfacet
facet normal 6.689058e-1 -4.4895083e-1 -5.9245944e-1
outer loop
vertex 6.0e0 5.5e0 5.0e0
vertex 6.4428573e0 5.5e0 5.5e0
vertex 5.8238096e0 5.1023808e0 5.1023808e0
endloop
endfacet
facet normal 6.689058e-1 -5.9245944e-1 -4.4895083e-1
outer loop
vertex 6.4428573e0 5.5e0 5.5e0
vertex 6.0e0 5.0e0 5.5e0
vertex 5.8238096e0 5.1023808e0 5.1023808e0
endloop
endfacet
facet normal 5.962096e-1 -6.7313987e-1 -4.3751213e-1
outer loop
vertex 6.0e0 5.0e0 5.5e0
vertex 5.5e0 4.5571427e0 5.5e0
vertex 5.8238096e0 5.1023808e0 5.1023808e0
endloop
endfacet
facet normal -5.106255e-1 8.5980326e-1 0.0e0
outer loop
vertex 4.5571427e0 5.5e0 4.5571427e0
vertex 4.5571427e0 5.5e0 5.5e0
vertex 5.1023808e0 5.8238096e0 5.1023808e0
endloop
endfacet
facet normal -6.7313987e-1 5.962096e-1 -4.3751213e-1
outer loop
vertex 4.5571427e0 5.5e0 5.5e0
vertex 5.0e0 6.0e0 5.5e0
vertex 5.1023808e0 5.8238096e0 5.1023808e0
endloop
endfacet
facet normal -5.9245944e-1 6.689058e-1 -4.4895083e-1
outer loop
vertex 5.0e0 6.0e0 5.5e0
vertex 5.5e0 6.4428573e0 5.5e0
vertex 5.1023808e0 5.8238096e0 5.1023808e0
endloop
endfacet
facet normal -4.4895083e-1 6.689058e-1 -5.9245944e-1
outer loop
vertex 5.5e0 6.4428573e0 5.5e0
vertex 5.5e0 6.0e0 5.0e0
vertex 5.1023808e0 5.8238096e0 5.1023808e0
endloop
endfacet
facet normal -4.3751213e-1 5.962096e-1 -6.7313987e-1
outer loop
vertex 5.5e0 6.0e0 5.0e0
vertex 5.5e0 5.5e0 4.5571427e0
vertex 5.1023808e0 5.8238096e0 5.1023808e0
endloop
endfacet
facet normal 0.0e0 8.5980326e-1 -5.106255e-1
outer loop
vertex 5.5e0 5.5e0 4.5571427e0
vertex 4.5571427e0 5.5e0 4.5571427e0
vertex 5.1023808e0 5.8238096e0 5.1023808e0
endloop
endfacet
facet normal 4.4895083e-1 5.9245944e-1 -6.689058e-1
outer loop
vertex 5.5e0 5.5e0 4.5571427e0
vertex 5.5e0 6.0e0 5.0e0
vertex 5.8976192e0 5.8976192e0 5.1761904e0
endloop
endfacet
facet normal 4.3751213e-1 6.7313987e-1 -5.962096e-1
outer loop
vertex 5.5e0 6.0e0 5.0e0
vertex 5.5e0 6.4428573e0 5.5e0
vertex 5.8976192e0 5.8976192e0 5.1761904e0
endloop
endfacet
facet normal 0.0e0 5.106255e-1 -8.5980326e-1
outer loop
vertex 5.5e0 6.4428573e0 5.5e0
vertex 6.4428573e0 6.4428573e0 5.5e0
vertex 5.8976192e0 5.8976192e0 5.1761904e0
endloop
endfacet
facet normal 5.106255e-1 0.0e0 -8.5980326e-1
outer loop
vertex 6.4428573e0 6.4428573e0 5.5e0
vertex 6.4428573e0 5.5e0 5.5e0
vertex 5.8976192e0 5.8976192e0 5.1761904e0
endloop
endfacet
facet normal 6.7313987e-1 4.3751213e-1 -5.962096e-1
outer loop
vertex 6.4428573e0 5.5e0 5.5e0
vertex 6.0e0 5.5e0 5.0e0
vertex 5.8976192e0 5.8976192e0 5.1761904e0
endloop
endfacet
facet normal 5.9245944e-1 4.4895083e-1 -6.689058e-1
outer loop
vertex 6.0e0 5.5e0 5.0e0
vertex 5.5e0 5.5e0 4.5571427e0
vertex 5.8976192e0 5.8976192e0 5.1761904e0
endloop
endfacet
facet normal -5.106255e-1 0.0e0 8.5980326e-1
outer loop
vertex 4.5571427e0 5.5e0 5.5e0
vertex 4.5571427e0 4.5571427e0 5.5e0
vertex 5.1023808e0 5.1023808e0 5.8238096e0
endloop
endfacet
facet normal 0.0e0 -5.106255e-1 8.5980326e-1
outer loop
vertex 4.5571427e0 4.5571427e0 5.5e0
vertex 5.5e0 4.5571427e0 5.5e0
vertex 5.1023808e0 5.1023808e0 5.8238096e0
endloop
endfacet
facet normal -4.3751213e-1 -6.7313987e-1 5.962096e-1
outer loop
vertex 5.5e0 4.5571427e0 5.5e0
vertex 5.5e0 5.0e0 6.0e0
vertex 5.1023808e0 5.1023808e0 5.8238096e0
endloop
endfacet
facet normal -4.4895083e-1 -5.9245944e-1 6.689058e-1
outer loop
vertex 5.5e0 5.0e0 6.0e0
vertex 5.5e0 5.5e0 6.4428573e0
vertex 5.1023808e0 5.1023808e0 5.8238096e0
endloop
endfacet
facet normal -5.9245944e-1 -4.4895083e-1 6.689058e-1
outer loop
vertex 5.5e0 5.5e0 6.4428573e0
vertex 5.0e0 5.5e0 6.0e0
vertex 5.1023808e0 5.1023808e0 5.8238096e0
endloop
endfacet
facet normal -6.7313987e-1 -4.3751213e-1 5.962096e-1
outer loop
vertex 5.0e0 5.5e0 6.0e0
vertex 4.5571427e0 5.5e0 5.5e0
vertex 5.1023808e0 5.1023808e0 5.8238096e0
endloop
endfacet
facet normal 4.3751213e-1 -5.962096e-1 6.7313987e-1
outer loop
vertex 5.5e0 5.5e0 6.4428573e0
vertex 5.5e0 5.0e0 6.0e0
vertex 5.8976192e0 5.1761904e0 5.8976192e0
endloop
endfacet
facet normal 4.4895083e-1 -6.689058e-1 5.9245944e-1
outer loop
vertex 5.5e0 5.0e0 6.0e0
vertex 5.5e0 4.5571427e0 5.5e0
vertex 5.8976192e0 5.1761904e0 5.8976192e0
endloop
endfacet
facet normal 5.9245944e-1 -6.689058e-1 4.4895083e-1
outer loop
vertex 5.5e0 4.5571427e0 5.5e0
vertex 6.0e0 5.0e0 5.5e0
vertex 5.8976192e0 5.1761904e0 5.8976192e0
endloop
endfacet
facet normal 6.7313987e-1 -5.962096e-1 4.3751213e-1
outer loop
vertex 6.0e0 5.0e0 5.5e0
vertex 6.4428573e0 5.5e0 5.5e0
vertex 5.8976192e0 5.1761904e0 5.8976192e0
endloop
endfacet
facet normal 5.106255e-1 -8.5980326e-1 0.0e0
outer loop
vertex 6.4428573e0 5.5e0 5.5e0
vertex 6.4428573e0 5.5e0 6.4428573e0
vertex 5.8976192e0 5.1761904e0 5.8976192e0
endloop
endfacet
facet normal 0.0e0 -8.5980326e-1 5.106255e-1
outer loop
vertex 6.4428573e0 5.5e0 6.4428573e0
vertex 5.5e0 5.5e0 6.4428573e0
vertex 5.8976192e0 5.1761904e0 5.8976192e0
endloop
endfacet
facet normal -6.689058e-1 4.4895083e-1 5.9245944e-1
outer loop
vertex 4.5571427e0 5.5e0 5.5e0
vertex 5.0e0 5.5e0 6.0e0
vertex 5.1761904e0 5.8976192e0 5.8976192e0
endloop
endfacet
facet normal -5.962096e-1 4.3751213e-1 6.7313987e-1
outer loop
vertex 5.0e0 5.5e0 6.0e0
vertex 5.5e0 5.5e0 6.4428573e0
vertex 5.1761904e0 5.8976192e0 5.8976192e0
endloop
endfacet
facet normal -8.5980326e-1 0.0e0 5.106255e-1
outer loop
vertex 5.5e0 5.5e0 6.4428573e0
vertex 5.5e0 6.4428573e0 6.4428573e0
vertex 5.1761904e0 5.8976192e0 5.8976192e0
endloop
endfacet
facet normal -8.5980326e-1 5.106255e-1 0.0e0
outer loop
vertex 5.5e0 6.4428573e0 6.4428573e0
vertex 5.5e0 6.4428573e0 5.5e0
vertex 5.1761904e0 5.8976192e0 5.8976192e0
endloop
endfacet
facet normal -5.962096e-1 6.7313987e-1 4.3751213e-1
outer loop
vertex 5.5e0 6.4428573e0 5.5e0
vertex 5.0e0 6.0e0 5.5e0
vertex 5.1761904e0 5.8976192e0 5.8976192e0
endloop
endfacet
facet normal -6.689058e-1 5.9245944e-1 4.4895083e-1
outer loop
vertex 5.0e0 6.0e0 5.5e0
vertex 4.5571427e0 5.5e0 5.5e0
vertex 5.1761904e0 5.8976192e0 5.8976192e0
endloop
endfacet
facet normal 5.66195e-1 -5.8284783e-1 -5.8284783e-1
outer loop
vertex 7.385714e0 6.4428573e0 6.4159184e0
vertex 7.385714e0 6.4159184e0 6.4428573e0
vertex 6.4428573e0 5.5e0 6.4428573e0
endloop
endfacet
facet normal 7.0710677e-1 -7.0710677e-1 0.0e0
outer loop
vertex 7.385714e0 6.4428573e0 6.4159184e0
vertex 6.4428573e0 5.5e0 6.4428573e0
vertex 6.4428573e0 5.5e0 5.5e0
endloop
endfacet
facet normal 6.967857e-1 0.0e0 -7.172794e-1
outer loop
vertex 7.385714e0 6.4428573e0 6.4159184e0
vertex 6.4428573e0 5.5e0 5.5e0
vertex 6.4428573e0 6.4428573e0 5.5e0
endloop
endfacet
facet normal 8.000147e-1 -4.2425022e-1 -4.2425022e-1
outer loop
vertex 7.385714e0 6.4159184e0 6.4428573e0
vertex 7.385714e0 6.4428573e0 6.4159184e0
vertex 7.4e0 6.4428573e0 6.4428573e0
endloop
endfacet
facet normal -7.172794e-1 6.967857e-1 0.0e0
outer loop
vertex 5.5e0 6.4428573e0 5.5e0
vertex 5.5e0 6.4428573e0 6.4428573e0
vertex 6.4159184e0 7.385714e0 6.4428573e0
endloop
endfacet
facet normal -4.1216424e-1 8.1255233e-1 -4.1216424e-1
outer loop
vertex 5.5e0 6.4428573e0 5.5e0
vertex 6.4159184e0 7.385714e0 6.4428573e0
vertex 6.4428573e0 7.385714e0 6.4159184e0
endloop
endfacet
facet normal 0.0e0 6.967857e-1 -7.172794e-1
outer loop
vertex 5.5e0 6.4428573e0 5.5e0
vertex 6.4428573e0 7.385714e0 6.4159184e0
vertex 6.4428573e0 6.4428573e0 5.5e0
endloop
endfacet
facet normal 0.0e0 6.967857e-1 -7.172794e-1
outer loop
vertex 6.4428573e0 6.4428573e0 5.5e0
vertex 6.4428573e0 7.385714e0 6.4159184e0
vertex 7.385714e0 7.385714e0 6.4159184e0
endloop
endfacet
facet normal 6.967857e-1 0.0e0 -7.172794e-1
outer loop
vertex 6.4428573e0 6.4428573e0 5.5e0
vertex 7.385714e0 7.385714e0 6.4159184e0
vertex 7.385714e0 6.4428573e0 6.4159184e0
endloop
endfacet
facet normal 8.8346213e-1 0.0e0 -4.6850264e-1
outer loop
vertex 7.385714e0 6.4428573e0 6.4159184e0
vertex 7.385714e0 7.385714e0 6.4159184e0
vertex 7.4e0 7.385714e0 6.4428573e0
endloop
endfacet
facet normal 8.8346213e-1 0.0e0 -4.6850264e-1
outer loop
vertex 7.385714e0 6.4428573e0 6.4159184e0
vertex 7.4e0 7.385714e0 6.4428573e0
vertex 7.4e0 6.4428573e0 6.4428573e0
endloop
endfacet
facet normal -4.2425022e-1 8.000147e-1 -4.2425022e-1
outer loop
vertex 6.4428573e0 7.4e0 6.4428573e0
vertex 6.4428573e0 7.385714e0 6.4159184e0
vertex 6.4159184e0 7.385714e0 6.4428573e0
endloop
endfacet
facet normal 0.0e0 8.8346213e-1 -4.6850264e-1
outer loop
vertex 6.4428573e0 7.385714e0 6.4159184e0
vertex 6.4428573e0 7.4e0 6.4428573e0
vertex 7.385714e0 7.4e0 6.4428573e0
endloop
endfacet
facet normal 0.0e0 8.8346213e-1 -4.6850264e-1
outer loop
vertex 6.4428573e0 7.385714e0 6.4159184e0
vertex 7.385714e0 7.4e0 6.4428573e0
vertex 7.385714e0 7.385714e0 6.4159184e0
endloop
endfacet
facet normal 6.620889e-1 6.620889e-1 -3.5110775e-1
outer loop
vertex 7.385714e0 7.385714e0 6.4159184e0
vertex 7.385714e0 7.4e0 6.4428573e0
vertex 7.4e0 7.385714e0 6.4428573e0
endloop
endfacet
facet normal 0.0e0 -7.172794e-1 6.967857e-1
outer loop
vertex 5.5e0 5.5e0 6.4428573e0
vertex 6.4428573e0 5.5e0 6.4428573e0
vertex 6.4428573e0 6.4159184e0 7.385714e0
endloop
endfacet
facet normal -4.1216424e-1 -4.1216424e-1 8.1255233e-1
outer loop
vertex 5.5e0 5.5e0 6.4428573e0
vertex 6.4428573e0 6.4159184e0 7.385714e0
vertex 6.4159184e0 6.4428573e0 7.385714e0
endloop
endfacet
facet normal -7.172794e-1 0.0e0 6.967857e-1
outer loop
vertex 5.5e0 5.5e0 6.4428573e0
vertex 6.4159184e0 6.4428573e0 7.385714e0
vertex 5.5e0 6.4428573e0 6.4428573e0
endloop
endfacet
facet normal 5.7169104e-1 -5.885055e-1 5.7169104e-1
outer loop
vertex 6.4428573e0 6.4159184e0 7.385714e0
vertex 6.4428573e0 5.5e0 6.4428573e0
vertex 7.385714e0 6.4159184e0 6.4428573e0
endloop
endfacet
facet normal 0.0e0 -1.0e0 0.0e0
outer loop
vertex 6.4428573e0 6.4159184e0 7.385714e0
vertex 7.385714e0 6.4159184e0 6.4428573e0
vertex 7.385714e0 6.4159184e0 7.385714e0
endloop
endfacet
facet normal 8.8346213e-1 -4.6850264e-1 0.0e0
outer loop
vertex 7.385714e0 6.4159184e0 7.385714e0
vertex 7.385714e0 6.4159184e0 6.4428573e0
vertex 7.4e0 6.4428573e0 6.4428573e0
endloop
endfacet
facet normal 8.8346213e-1 -4.6850264e-1 0.0e0
outer loop
vertex 7.385714e0 6.4159184e0 7.385714e0
vertex 7.4e0 6.4428573e0 6.4428573e0
vertex 7.4e0 6.4428573e0 7.385714e0
endloop
endfacet
facet normal -7.172794e-1 0.0e0 6.967857e-1
outer loop
vertex 5.5e0 6.4428573e0 6.4428573e0
vertex 6.4159184e0 6.4428573e0 7.385714e0
vertex 6.4159184e0 7.385714e0 7.385714e0
endloop
endfacet
facet normal -7.172794e-1 6.967857e-1 0.0e0
outer loop
vertex 5.5e0 6.4428573e0 6.4428573e0
vertex 6.4159184e0 7.385714e0 7.385714e0
vertex 6.4159184e0 7.385714e0 6.4428573e0
endloop
endfacet
facet normal 1.0e0 0.0e0 0.0e0
outer loop
vertex 7.4e0 6.4428573e0 7.385714e0
vertex 7.4e0 6.4428573e0 6.4428573e0
vertex 7.4e0 7.385714e0 6.4428573e0
endloop
endfacet
facet normal 5.9524715e-1 -5.6819046e-1 -5.6819046e-1
outer loop
vertex 7.4e0 6.4428573e0 7.385714e0
vertex 7.4e0 7.385714e0 6.4428573e0
vertex 8.3e0 7.385714e0 7.385714e0
endloop
endfacet
facet normal -4.6850264e-1 8.8346213e-1 0.0e0
outer loop
vertex 6.4428573e0 7.4e0 7.385714e0
vertex 6.4428573e0 7.4e0 6.4428573e0
vertex 6.4159184e0 7.385714e0 6.4428573e0
endloop
endfacet
facet normal -4.6850264e-1 8.8346213e-1 0.0e0
outer loop
vertex 6.4428573e0 7.4e0 7.385714e0
vertex 6.4159184e0 7.385714e0 6.4428573e0
vertex 6.4159184e0 7.385714e0 7.385714e0
endloop
endfacet
facet normal -6.9047576e-1 7.2335553e-1 0.0e0
outer loop
vertex 6.4428573e0 7.4e0 6.4428573e0
vertex 6.4428573e0 7.4e0 7.385714e0
vertex 7.385714e0 8.3e0 7.385714e0
endloop
endfacet
facet normal 0.0e0 7.2335553e-1 -6.9047576e-1
outer loop
vertex 6.4428573e0 7.4e0 6.4428573e0
vertex 7.385714e0 8.3e0 7.385714e0
vertex 7.385714e0 7.4e0 6.4428573e0
endloop
endfacet
facet normal 3.1705978e-15 7.2335553e-1 -6.9047576e-1
outer loop
vertex 7.385714e0 7.4e0 6.4428573e0
vertex 7.385714e0 8.3e0 7.385714e0
vertex 7.788678e0 8.3e0 7.385714e0
endloop
endfacet
facet normal 2.232008e-1 6.556933e-1 -7.2128195e-1
outer loop
vertex 7.385714e0 7.4e0 6.4428573e0
vertex 7.788678e0 8.3e0 7.385714e0
vertex 8.170147e0 8.170147e0 7.385714e0
endloop
endfacet
facet normal 6.526021e-1 2.2214854e-1 -7.2440356e-1
outer loop
vertex 7.385714e0 7.4e0 6.4428573e0
vertex 8.170147e0 8.170147e0 7.385714e0
vertex 8.3e0 7.788678e0 7.385714e0
endloop
endfacet
facet normal 7.179004e-1 3.146687e-15 -6.9614583e-1
outer loop
vertex 7.385714e0 7.4e0 6.4428573e0
vertex 8.3e0 7.788678e0 7.385714e0
vertex 8.3e0 7.385714e0 7.385714e0
endloop
endfacet
facet normal 5.860939e-1 5.860939e-1 -5.5945325e-1
outer loop
vertex 7.385714e0 7.4e0 6.4428573e0
vertex 8.3e0 7.385714e0 7.385714e0
vertex 7.4e0 7.385714e0 6.4428573e0
endloop
endfacet
facet normal -4.2425022e-1 -4.2425022e-1 8.000147e-1
outer loop
vertex 6.4428573e0 6.4159184e0 7.385714e0
vertex 6.4428573e0 6.4428573e0 7.4e0
vertex 6.4159184e0 6.4428573e0 7.385714e0
endloop
endfacet
facet normal 0.0e0 -4.6850264e-1 8.8346213e-1
outer loop
vertex 6.4428573e0 6.4428573e0 7.4e0
vertex 6.4428573e0 6.4159184e0 7.385714e0
vertex 7.385714e0 6.4159184e0 7.385714e0
endloop
endfacet
facet normal 0.0e0 -4.6850264e-1 8.8346213e-1
outer loop
vertex 6.4428573e0 6.4428573e0 7.4e0
vertex 7.385714e0 6.4159184e0 7.385714e0
vertex 7.385714e0 6.4428573e0 7.4e0
endloop
endfacet
facet normal 6.620889e-1 -3.5110775e-1 6.620889e-1
outer loop
vertex 7.385714e0 6.4428573e0 7.4e0
vertex 7.385714e0 6.4159184e0 7.385714e0
vertex 7.4e0 6.4428573e0 7.385714e0
endloop
endfacet
facet normal -4.6850264e-1 0.0e0 8.8346213e-1
outer loop
vertex 6.4428573e0 6.4428573e0 7.4e0
vertex 6.4428573e0 7.385714e0 7.4e0
vertex 6.4159184e0 7.385714e0 7.385714e0
endloop
endfacet
facet normal -4.6850264e-1 0.0e0 8.8346213e-1
outer loop
vertex 6.4428573e0 6.4428573e0 7.4e0
vertex 6.4159184e0 7.385714e0 7.385714e0
vertex 6.4159184e0 6.4428573e0 7.385714e0
endloop
endfacet
facet normal 0.0e0 0.0e0 1.0e0
outer loop
vertex 6.4428573e0 7.385714e0 7.4e0
vertex 6.4428573e0 6.4428573e0 7.4e0
vertex 7.385714e0 6.4428573e0 7.4e0
endloop
endfacet
facet normal -5.6819046e-1 -5.6819046e-1 5.9524715e-1
outer loop
vertex 6.4428573e0 7.385714e0 7.4e0
vertex 7.385714e0 6.4428573e0 7.4e0
vertex 7.385714e0 7.385714e0 8.3e0
endloop
endfacet
facet normal 5.860939e-1 -5.5945325e-1 5.860939e-1
outer loop
vertex 7.385714e0 7.385714e0 8.3e0
vertex 7.385714e0 6.4428573e0 7.4e0
vertex 7.4e0 6.4428573e0 7.385714e0
endloop
endfacet
facet normal 7.2335553e-1 -6.9047576e-1 3.1705978e-15
outer loop
vertex 7.4e0 6.4428573e0 7.385714e0
vertex 8.3e0 7.385714e0 7.385714e0
vertex 8.3e0 7.385714e0 7.788678e0
endloop
endfacet
facet normal 6.556933e-1 -7.2128195e-1 2.232008e-1
outer loop
vertex 7.4e0 6.4428573e0 7.385714e0
vertex 8.3e0 7.385714e0 7.788678e0
vertex 8.170147e0 7.385714e0 8.170147e0
endloop
endfacet
facet normal 2.2214854e-1 -7.2440356e-1 6.526021e-1
outer loop
vertex 7.4e0 6.4428573e0 7.385714e0
vertex 8.170147e0 7.385714e0 8.170147e0
vertex 7.788678e0 7.385714e0 8.3e0
endloop
endfacet
facet normal 3.146687e-15 -6.9614583e-1 7.179004e-1
outer loop
vertex 7.4e0 6.4428573e0 7.385714e0
vertex 7.788678e0 7.385714e0 8.3e0
vertex 7.385714e0 7.385714e0 8.3e0
endloop
endfacet
facet normal -3.5110775e-1 6.620889e-1 6.620889e-1
outer loop
vertex 6.4428573e0 7.385714e0 7.4e0
vertex 6.4428573e0 7.4e0 7.385714e0
vertex 6.4159184e0 7.385714e0 7.385714e0
endloop
endfacet
facet normal -5.5945325e-1 5.860939e-1 5.860939e-1
outer loop
vertex 6.4428573e0 7.4e0 7.385714e0
vertex 6.4428573e0 7.385714e0 7.4e0
vertex 7.385714e0 7.385714e0 8.3e0
endloop
endfacet
facet normal -6.9614583e-1 3.146687e-15 7.179004e-1
outer loop
vertex 6.4428573e0 7.4e0 7.385714e0
vertex 7.385714e0 7.385714e0 8.3e0
vertex 7.385714e0 7.788678e0 8.3e0
endloop
endfacet
facet normal -7.2440356e-1 2.2214854e-1 6.526021e-1
outer loop
vertex 6.4428573e0 7.4e0 7.385714e0
vertex 7.385714e0 7.788678e0 8.3e0
vertex 7.385714e0 8.170147e0 8.170147e0
endloop
endfacet
facet normal -7.2128195e-1 6.556933e-1 2.232008e-1
outer loop
vertex 6.4428573e0 7.4e0 7.385714e0
vertex 7.385714e0 8.170147e0 8.170147e0
vertex 7.385714e0 8.3e0 7.788678e0
endloop
endfacet
facet normal -6.9047576e-1 7.2335553e-1 3.1705978e-15
outer loop
vertex 6.4428573e0 7.4e0 7.385714e0
vertex 7.385714e0 8.3e0 7.788678e0
vertex 7.385714e0 8.3e0 7.385714e0
endloop
endfacet
facet normal 7.528575e-1 6.581836e-1 2.9014226e-15
outer loop
vertex 7.385714e0 8.3e0 7.385714e0
vertex 7.385714e0 8.3e0 7.788678e0
vertex 7.8121853e0 7.8121853e0 7.8121853e0
endloop
endfacet
facet normal 7.290233e-1 6.4797556e-1 2.2057363e-1
outer loop
vertex 7.385714e0 8.3e0 7.788678e0
vertex 7.385714e0 8.170147e0 8.170147e0
vertex 7.8121853e0 7.8121853e0 7.8121853e0
endloop
endfacet
facet normal 7.290233e-1 2.2057363e-1 6.4797556e-1
outer loop
vertex 7.385714e0 8.170147e0 8.170147e0
vertex 7.385714e0 7.788678e0 8.3e0
vertex 7.8121853e0 7.8121853e0 7.8121853e0
endloop
endfacet
facet normal 7.528575e-1 2.9014226e-15 6.581836e-1
outer loop
vertex 7.385714e0 7.788678e0 8.3e0
vertex 7.385714e0 7.385714e0 8.3e0
vertex 7.8121853e0 7.8121853e0 7.8121853e0
endloop
endfacet
facet normal 2.9014226e-15 7.528575e-1 6.581836e-1
outer loop
vertex 7.385714e0 7.385714e0 8.3e0
vertex 7.788678e0 7.385714e0 8.3e0
vertex 7.8121853e0 7.8121853e0 7.8121853e0
endloop
endfacet
facet normal 2.2057363e-1 7.290233e-1 6.4797556e-1
outer loop
vertex 7.788678e0 7.385714e0 8.3e0
vertex 8.170147e0 7.385714e0 8.170147e0
vertex 7.8121853e0 7.8121853e0 7.8121853e0
endloop
endfacet
facet normal 6.4797556e-1 7.290233e-1 2.2057363e-1
outer loop
vertex 8.170147e0 7.385714e0 8.170147e0
vertex 8.3e0 7.385714e0 7.788678e0
vertex 7.8121853e0 7.8121853e0 7.8121853e0
endloop
endfacet
facet normal 6.581836e-1 7.528575e-1 2.9014226e-15
outer loop
vertex 8.3e0 7.385714e0 7.788678e0
vertex 8.3e0 7.385714e0 7.385714e0
vertex 7.8121853e0 7.8121853e0 7.8121853e0
endloop
endfacet
facet normal 6.581836e-1 2.9014226e-15 7.528575e-1
outer loop
vertex 8.3e0 7.385714e0 7.385714e0
vertex 8.3e0 7.788678e0 7.385714e0
vertex 7.8121853e0 7.8121853e0 7.8121853e0
endloop
endfacet
facet normal 6.4797556e-1 2.2057363e-1 7.290233e-1
outer loop
vertex 8.3e0 7.788678e0 7.385714e0
vertex 8.170147e0 8.170147e0 7.385714e0
vertex 7.8121853e0 7.8121853e0 7.8121853e0
endloop
endfacet
facet normal 2.2057363e-1 6.4797556e-1 7.290233e-1
outer loop
vertex 8.170147e0 8.170147e0 7.385714e0
vertex 7.788678e0 8.3e0 7.385714e0
vertex 7.8121853e0 7.8121853e0 7.8121853e0
endloop
endfacet
facet normal 2.9014226e-15 6.581836e-1 7.528575e-1
outer loop
vertex 7.788678e0 8.3e0 7.385714e0
vertex 7.385714e0 8.3e0 7.385714e0
vertex 7.8121853e0 7.8121853e0 7.8121853e0
endloop
endfacet
facet normal -7.152339e-1 -1.8319292e-1 -6.744485e-1
outer loop
vertex 8.328571e0 8.328571e0 7.4e0
vertex 8.328571e0 7.598344e0 7.598344e0
vertex 7.9304004e0 7.9304004e0 7.9304004e0
endloop
endfacet
facet normal -7.152339e-1 -6.744485e-1 -1.8319292e-1
outer loop
vertex 8.328571e0 7.598344e0 7.598344e0
vertex 8.328571e0 7.4e0 8.328571e0
vertex 7.9304004e0 7.9304004e0 7.9304004e0
endloop
endfacet
facet normal -1.8319292e-1 -6.744485e-1 -7.152339e-1
outer loop
vertex 8.328571e0 7.4e0 8.328571e0
vertex 7.598344e0 7.598344e0 8.328571e0
vertex 7.9304004e0 7.9304004e0 7.9304004e0
endloop
endfacet
facet normal -6.744485e-1 -1.8319292e-1 -7.152339e-1
outer loop
vertex 7.598344e0 7.598344e0 8.328571e0
vertex 7.4e0 8.328571e0 8.328571e0
vertex 7.9304004e0 7.9304004e0 7.9304004e0
endloop
endfacet
facet normal -6.744485e-1 -7.152339e-1 -1.8319292e-1
outer loop
vertex 7.4e0 8.328571e0 8.328571e0
vertex 7.598344e0 8.328571e0 7.598344e0
vertex 7.9304004e0 7.9304004e0 7.9304004e0
endloop
endfacet
facet normal -1.8319292e-1 -7.152339e-1 -6.744485e-1
outer loop
vertex 7.598344e0 8.328571e0 7.598344e0
vertex 8.328571e0 8.328571e0 7.4e0
vertex 7.9304004e0 7.9304004e0 7.9304004e0
endloop
endfacet
facet normal 5.5945325e-1 -5.860939e-1 -5.860939e-1
outer loop
vertex 8.328571e0 8.328571e0 7.4e0
vertex 9.271428e0 8.328571e0 8.3e0
vertex 9.271428e0 8.3e0 8.328571e0
endloop
endfacet
facet normal 6.979511e-1 -8.35192e-2 -7.112586e-1
outer loop
vertex 8.328571e0 8.328571e0 7.4e0
vertex 9.271428e0 8.3e0 8.328571e0
vertex 8.7e0 7.8173647e0 7.824507e0
endloop
endfacet
facet normal 6.876871e-1 -7.2043407e-1 -8.978429e-2
outer loop
vertex 9.271428e0 8.3e0 8.328571e0
vertex 8.328571e0 7.4e0 8.328571e0
vertex 8.7e0 7.8173647e0 7.824507e0
endloop
endfacet
facet normal 5.889049e-1 -7.799434e-1 -2.1184732e-1
outer loop
vertex 8.328571e0 7.4e0 8.328571e0
vertex 8.328571e0 7.598344e0 7.598344e0
vertex 8.7e0 7.8173647e0 7.824507e0
endloop
endfacet
facet normal 5.959725e-1 -2.1048497e-1 -7.749277e-1
outer loop
vertex 8.328571e0 7.598344e0 7.598344e0
vertex 8.328571e0 8.328571e0 7.4e0
vertex 8.7e0 7.8173647e0 7.824507e0
endloop
endfacet
facet normal 5.7735026e-1 -5.7735026e-1 -5.7735026e-1
outer loop
vertex 9.271428e0 8.3e0 8.328571e0
vertex 9.271428e0 8.328571e0 8.3e0
vertex 9.3e0 8.328571e0 8.328571e0
endloop
endfacet
facet normal -5.860939e-1 5.5945325e-1 -5.860939e-1
outer loop
vertex 7.4e0 8.328571e0 8.328571e0
vertex 8.3e0 9.271428e0 8.328571e0
vertex 8.328571e0 9.271428e0 8.3e0
endloop
endfacet
facet normal -7.112586e-1 6.979511e-1 -8.35192e-2
outer loop
vertex 7.4e0 8.328571e0 8.328571e0
vertex 8.328571e0 9.271428e0 8.3e0
vertex 7.824507e0 8.7e0 7.8173647e0
endloop
endfacet
facet normal -8.978429e-2 6.876871e-1 -7.2043407e-1
outer loop
vertex 8.328571e0 9.271428e0 8.3e0
vertex 8.328571e0 8.328571e0 7.4e0
vertex 7.824507e0 8.7e0 7.8173647e0
endloop
endfacet
facet normal -2.1184732e-1 5.889049e-1 -7.799434e-1
outer loop
vertex 8.328571e0 8.328571e0 7.4e0
vertex 7.598344e0 8.328571e0 7.598344e0
vertex 7.824507e0 8.7e0 7.8173647e0
endloop
endfacet
facet normal -7.749277e-1 5.959725e-1 -2.1048497e-1
outer loop
vertex 7.598344e0 8.328571e0 7.598344e0
vertex 7.4e0 8.328571e0 8.328571e0
vertex 7.824507e0 8.7e0 7.8173647e0
endloop
endfacet
facet normal 0.0e0 6.9047576e-1 -7.2335553e-1
outer loop
vertex 8.328571e0 8.328571e0 7.4e0
vertex 8.328571e0 9.271428e0 8.3e0
vertex 9.271428e0 9.271428e0 8.3e0
endloop
endfacet
facet normal 6.9047576e-1 0.0e0 -7.2335553e-1
outer loop
vertex 8.328571e0 8.328571e0 7.4e0
vertex 9.271428e0 9.271428e0 8.3e0
vertex 9.271428e0 8.328571e0 8.3e0
endloop
endfacet
facet normal 7.0710677e-1 0.0e0 -7.0710677e-1
outer loop
vertex 9.271428e0 8.328571e0 8.3e0
vertex 9.271428e0 9.271428e0 8.3e0
vertex 9.3e0 9.271428e0 8.328571e0
endloop
endfacet
facet normal 7.0710677e-1 0.0e0 -7.0710677e-1
outer loop
vertex 9.271428e0 8.328571e0 8.3e0
vertex 9.3e0 9.271428e0 8.328571e0
vertex 9.3e0 8.328571e0 8.328571e0
endloop
endfacet
facet normal -5.7735026e-1 5.7735026e-1 -5.7735026e-1
outer loop
vertex 8.328571e0 9.3e0 8.328571e0
vertex 8.328571e0 9.271428e0 8.3e0
vertex 8.3e0 9.271428e0 8.328571e0
endloop
endfacet
facet normal 0.0e0 7.0710677e-1 -7.0710677e-1
outer loop
vertex 8.328571e0 9.271428e0 8.3e0
vertex 8.328571e0 9.3e0 8.328571e0
vertex 9.271428e0 9.3e0 8.328571e0
endloop
endfacet
facet normal 0.0e0 7.0710677e-1 -7.0710677e-1
outer loop
vertex 8.328571e0 9.271428e0 8.3e0
vertex 9.271428e0 9.3e0 8.328571e0
vertex 9.271428e0 9.271428e0 8.3e0
endloop
endfacet
facet normal 5.7735026e-1 5.7735026e-1 -5.7735026e-1
outer loop
vertex 9.271428e0 9.271428e0 8.3e0
vertex 9.271428e0 9.3e0 8.328571e0
vertex 9.3e0 9.271428e0 8.328571e0
endloop
endfacet
facet normal -5.860939e-1 -5.860939e-1 5.5945325e-1
outer loop
vertex 8.328571e0 7.4e0 8.328571e0
vertex 8.328571e0 8.3e0 9.271428e0
vertex 8.3e0 8.328571e0 9.271428e0
endloop
endfacet
facet normal -8.35192e-2 -7.112586e-1 6.979511e-1
outer loop
vertex 8.328571e0 7.4e0 8.328571e0
vertex 8.3e0 8.328571e0 9.271428e0
vertex 7.8173647e0 7.824507e0 8.7e0
endloop
endfacet
facet normal -7.2043407e-1 -8.978429e-2 6.876871e-1
outer loop
vertex 8.3e0 8.328571e0 9.271428e0
vertex 7.4e0 8.328571e0 8.328571e0
vertex 7.8173647e0 7.824507e0 8.7e0
endloop
endfacet
facet normal -7.799434e-1 -2.1184732e-1 5.889049e-1
outer loop
vertex 7.4e0 8.328571e0 8.328571e0
vertex 7.598344e0 7.598344e0 8.328571e0
vertex 7.8173647e0 7.824507e0 8.7e0
endloop
endfacet
facet normal -2.1048497e-1 -7.749277e-1 5.959725e-1
outer loop
vertex 7.598344e0 7.598344e0 8.328571e0
vertex 8.328571e0 7.4e0 8.328571e0
vertex 7.8173647e0 7.824507e0 8.7e0
endloop
endfacet
facet normal 5.6819046e-1 -5.9524715e-1 5.6819046e-1
outer loop
vertex 8.328571e0 8.3e0 9.271428e0
vertex 8.328571e0 7.4e0 8.328571e0
vertex 9.271428e0 8.3e0 8.328571e0
endloop
endfacet
facet normal 0.0e0 -1.0e0 0.0e0
outer loop
vertex 8.328571e0 8.3e0 9.271428e0
vertex 9.271428e0 8.3e0 8.328571e0
vertex 9.271428e0 8.3e0 9.271428e0
endloop
endfacet
facet normal 7.0710677e-1 -7.0710677e-1 0.0e0
outer loop
vertex 9.271428e0 8.3e0 9.271428e0
vertex 9.271428e0 8.3e0 8.328571e0
vertex 9.3e0 8.328571e0 8.328571e0
endloop
endfacet
facet normal 7.0710677e-1 -7.0710677e-1 0.0e0
outer loop
vertex 9.271428e0 8.3e0 9.271428e0
vertex 9.3e0 8.328571e0 8.328571e0
vertex 9.3e0 8.328571e0 9.271428e0
endloop
endfacet
facet normal -7.2335553e-1 0.0e0 6.9047576e-1
outer loop
vertex 7.4e0 8.328571e0 8.328571e0
vertex 8.3e0 8.328571e0 9.271428e0
vertex 8.3e0 9.271428e0 9.271428e0
endloop
endfacet
facet normal -7.2335553e-1 6.9047576e-1 0.0e0
outer loop
vertex 7.4e0 8.328571e0 8.328571e0
vertex 8.3e0 9.271428e0 9.271428e0
vertex 8.3e0 9.271428e0 8.328571e0
endloop
endfacet
facet normal 1.0e0 0.0e0 0.0e0
outer loop
vertex 9.3e0 8.328571e0 9.271428e0
vertex 9.3e0 8.328571e0 8.328571e0
vertex 9.3e0 9.271428e0 8.328571e0
endloop
endfacet
facet normal 5.9524715e-1 -5.6819046e-1 -5.6819046e-1
outer loop
vertex 9.3e0 8.328571e0 9.271428e0
vertex 9.3e0 9.271428e0 8.328571e0
vertex 1.02e1 9.271428e0 9.271428e0
endloop
endfacet
facet normal -7.0710677e-1 7.0710677e-1 0.0e0
outer loop
vertex 8.328571e0 9.3e0 9.271428e0
vertex 8.328571e0 9.3e0 8.328571e0
vertex 8.3e0 9.271428e0 8.328571e0
endloop
endfacet
facet normal -7.0710677e-1 7.0710677e-1 0.0e0
outer loop
vertex 8.328571e0 9.3e0 9.271428e0
vertex 8.3e0 9.271428e0 8.328571e0
vertex 8.3e0 9.271428e0 9.271428e0
endloop
endfacet
facet normal -6.9047576e-1 7.2335553e-1 0.0e0
outer loop
vertex 8.328571e0 9.3e0 8.328571e0
vertex 8.328571e0 9.3e0 9.271428e0
vertex 9.271428e0 1.02e1 9.271428e0
endloop
endfacet
facet normal 0.0e0 7.2335553e-1 -6.9047576e-1
outer loop
vertex 8.328571e0 9.3e0 8.328571e0
vertex 9.271428e0 1.02e1 9.271428e0
vertex 9.271428e0 9.3e0 8.328571e0
endloop
endfacet
facet normal 5.860939e-1 5.860939e-1 -5.5945325e-1
outer loop
vertex 1.02e1 9.271428e0 9.271428e0
vertex 9.3e0 9.271428e0 8.328571e0
vertex 9.271428e0 9.3e0 8.328571e0
endloop
endfacet
facet normal 7.112586e-1 8.35192e-2 -6.979511e-1
outer loop
vertex 1.02e1 9.271428e0 9.271428e0
vertex 9.271428e0 9.3e0 8.328571e0
vertex 9.775493e0 9.782636e0 8.9e0
endloop
endfacet
facet normal 8.978429e-2 7.2043407e-1 -6.876871e-1
outer loop
vertex 9.271428e0 9.3e0 8.328571e0
vertex 9.271428e0 1.02e1 9.271428e0
vertex 9.775493e0 9.782636e0 8.9e0
endloop
endfacet
facet normal 2.1184732e-1 7.799434e-1 -5.889049e-1
outer loop
vertex 9.271428e0 1.02e1 9.271428e0
vertex 1.0001657e1 1.0001657e1 9.271428e0
vertex 9.775493e0 9.782636e0 8.9e0
endloop
endfacet
facet normal 7.749277e-1 2.1048497e-1 -5.959725e-1
outer loop
vertex 1.0001657e1 1.0001657e1 9.271428e0
vertex 1.02e1 9.271428e0 9.271428e0
vertex 9.775493e0 9.782636e0 8.9e0
endloop
endfacet
facet normal -5.7735026e-1 -5.7735026e-1 5.7735026e-1
outer loop
vertex 8.328571e0 8.3e0 9.271428e0
vertex 8.328571e0 8.328571e0 9.3e0
vertex 8.3e0 8.328571e0 9.271428e0
endloop
endfacet
facet normal 0.0e0 -7.0710677e-1 7.0710677e-1
outer loop
vertex 8.328571e0 8.328571e0 9.3e0
vertex 8.328571e0 8.3e0 9.271428e0
vertex 9.271428e0 8.3e0 9.271428e0
endloop
endfacet
facet normal 0.0e0 -7.0710677e-1 7.0710677e-1
outer loop
vertex 8.328571e0 8.328571e0 9.3e0
vertex 9.271428e0 8.3e0 9.271428e0
vertex 9.271428e0 8.328571e0 9.3e0
endloop
endfacet
facet normal 5.7735026e-1 -5.7735026e-1 5.7735026e-1
outer loop
vertex 9.271428e0 8.328571e0 9.3e0
vertex 9.271428e0 8.3e0 9.271428e0
vertex 9.3e0 8.328571e0 9.271428e0
endloop
endfacet
facet normal -7.0710677e-1 0.0e0 7.0710677e-1
outer loop
vertex 8.328571e0 8.328571e0 9.3e0
vertex 8.328571e0 9.271428e0 9.3e0
vertex 8.3e0 9.271428e0 9.271428e0
endloop
endfacet
facet normal -7.0710677e-1 0.0e0 7.0710677e-1
outer loop
vertex 8.328571e0 8.328571e0 9.3e0
vertex 8.3e0 9.271428e0 9.271428e0
vertex 8.3e0 8.328571e0 9.271428e0
endloop
endfacet
facet normal 0.0e0 0.0e0 1.0e0
outer loop
vertex 8.328571e0 9.271428e0 9.3e0
vertex 8.328571e0 8.328571e0 9.3e0
vertex 9.271428e0 8.328571e0 9.3e0
endloop
endfacet
facet normal -5.6819046e-1 -5.6819046e-1 5.9524715e-1
outer loop
vertex 8.328571e0 9.271428e0 9.3e0
vertex 9.271428e0 8.328571e0 9.3e0
vertex 9.271428e0 9.271428e0 1.02e1
endloop
endfacet
facet normal 5.860939e-1 -5.5945325e-1 5.860939e-1
outer loop
vertex 9.271428e0 9.271428e0 1.02e1
vertex 9.271428e0 8.328571e0 9.3e0
vertex 9.3e0 8.328571e0 9.271428e0
endloop
endfacet
facet normal 8.35192e-2 -6.979511e-1 7.112586e-1
outer loop
vertex 9.271428e0 9.271428e0 1.02e1
vertex 9.3e0 8.328571e0 9.271428e0
vertex 9.782636e0 8.9e0 9.775493e0
endloop
endfacet
facet normal 7.2043407e-1 -6.876871e-1 8.978429e-2
outer loop
vertex 9.3e0 8.328571e0 9.271428e0
vertex 1.02e1 9.271428e0 9.271428e0
vertex 9.782636e0 8.9e0 9.775493e0
endloop
endfacet
facet normal 7.799434e-1 -5.889049e-1 2.1184732e-1
outer loop
vertex 1.02e1 9.271428e0 9.271428e0
vertex 1.0001657e1 9.271428e0 1.0001657e1
vertex 9.782636e0 8.9e0 9.775493e0
endloop
endfacet
facet normal 2.1048497e-1 -5.959725e-1 7.749277e-1
outer loop
vertex 1.0001657e1 9.271428e0 1.0001657e1
vertex 9.271428e0 9.271428e0 1.02e1
vertex 9.782636e0 8.9e0 9.775493e0
endloop
endfacet
facet normal -5.7735026e-1 5.7735026e-1 5.7735026e-1
outer loop
vertex 8.328571e0 9.271428e0 9.3e0
vertex 8.328571e0 9.3e0 9.271428e0
vertex 8.3e0 9.271428e0 9.271428e0
endloop
endfacet
facet normal -5.5945325e-1 5.860939e-1 5.860939e-1
outer loop
vertex 8.328571e0 9.3e0 9.271428e0
vertex 8.328571e0 9.271428e0 9.3e0
vertex 9.271428e0 9.271428e0 1.02e1
endloop
endfacet
facet normal -6.979511e-1 8.35192e-2 7.112586e-1
outer loop
vertex 8.328571e0 9.3e0 9.271428e0
vertex 9.271428e0 9.271428e0 1.02e1
vertex 8.9e0 9.782636e0 9.775493e0
endloop
endfacet
facet normal -5.959725e-1 2.1048497e-1 7.749277e-1
outer loop
vertex 9.271428e0 9.271428e0 1.02e1
vertex 9.271428e0 1.0001657e1 1.0001657e1
vertex 8.9e0 9.782636e0 9.775493e0
endloop
endfacet
facet normal -5.889049e-1 7.799434e-1 2.1184732e-1
outer loop
vertex 9.271428e0 1.0001657e1 1.0001657e1
vertex 9.271428e0 1.02e1 9.271428e0
vertex 8.9e0 9.782636e0 9.775493e0
endloop
endfacet
facet normal -6.876871e-1 7.2043407e-1 8.978429e-2
outer loop
vertex 9.271428e0 1.02e1 9.271428e0
vertex 8.328571e0 9.3e0 9.271428e0
vertex 8.9e0 9.782636e0 9.775493e0
endloop
endfacet
facet normal 7.152339e-1 6.744485e-1 1.8319292e-1
outer loop
vertex 9.271428e0 1.02e1 9.271428e0
vertex 9.271428e0 1.0001657e1 1.0001657e1
vertex 9.6696e0 9.6696e0 9.6696e0
endloop
endfacet
facet normal 7.152339e-1 1.8319292e-1 6.744485e-1
outer loop
vertex 9.271428e0 1.0001657e1 1.0001657e1
vertex 9.271428e0 9.271428e0 1.02e1
vertex 9.6696e0 9.6696e0 9.6696e0
endloop
endfacet
facet normal 1.8319292e-1 7.152339e-1 6.744485e-1
outer loop
vertex 9.271428e0 9.271428e0 1.02e1
vertex 1.0001657e1 9.271428e0 1.0001657e1
vertex 9.6696e0 9.6696e0 9.6696e0
endloop
endfacet
facet normal 6.744485e-1 7.152339e-1 1.8319292e-1
outer loop
vertex 1.0001657e1 9.271428e0 1.0001657e1
vertex 1.02e1 9.271428e0 9.271428e0
vertex 9.6696e0 9.6696e0 9.6696e0
endloop
endfacet
facet normal 6.744485e-1 1.8319292e-1 7.152339e-1
outer loop
vertex 1.02e1 9.271428e0 9.271428e0
vertex 1.0001657e1 1.0001657e1 9.271428e0
vertex 9.6696e0 9.6696e0 9.6696e0
endloop
endfacet
facet normal 1.8319292e-1 6.744485e-1 7.152339e-1
outer loop
vertex 1.0001657e1 1.0001657e1 9.271428e0
vertex 9.271428e0 1.02e1 9.271428e0
vertex 9.6696e0 9.6696e0 9.6696e0
endloop
endfacet
facet normal -7.528575e-1 -0.0e0 -6.581836e-1
outer loop
vertex 1.0214286e1 1.0214286e1 9.3e0
vertex 1.0214286e1 9.811321e0 9.3e0
vertex 9.787815e0 9.787815e0 9.787815e0
endloop
endfacet
facet normal -7.290233e-1 -2.2057363e-1 -6.4797556e-1
outer loop
vertex 1.0214286e1 9.811321e0 9.3e0
vertex 1.0214286e1 9.429853e0 9.429853e0
vertex 9.787815e0 9.787815e0 9.787815e0
endloop
endfacet
facet normal -7.290233e-1 -6.4797556e-1 -2.2057363e-1
outer loop
vertex 1.0214286e1 9.429853e0 9.429853e0
vertex 1.0214286e1 9.3e0 9.811321e0
vertex 9.787815e0 9.787815e0 9.787815e0
endloop
endfacet
facet normal -7.528575e-1 -6.581836e-1 0.0e0
outer loop
vertex 1.0214286e1 9.3e0 9.811321e0
vertex 1.0214286e1 9.3e0 1.0214286e1
vertex 9.787815e0 9.787815e0 9.787815e0
endloop
endfacet
facet normal -0.0e0 -6.581836e-1 -7.528575e-1
outer loop
vertex 1.0214286e1 9.3e0 1.0214286e1
vertex 9.811321e0 9.3e0 1.0214286e1
vertex 9.787815e0 9.787815e0 9.787815e0
endloop
endfacet
facet normal -2.2057363e-1 -6.4797556e-1 -7.290233e-1
outer loop
vertex 9.811321e0 9.3e0 1.0214286e1
vertex 9.429853e0 9.429853e0 1.0214286e1
vertex 9.787815e0 9.787815e0 9.787815e0
endloop
endfacet
facet normal -6.4797556e-1 -2.2057363e-1 -7.290233e-1
outer loop
vertex 9.429853e0 9.429853e0 1.0214286e1
vertex 9.3e0 9.811321e0 1.0214286e1
vertex 9.787815e0 9.787815e0 9.787815e0
endloop
endfacet
facet normal -6.581836e-1 0.0e0 -7.528575e-1
outer loop
vertex 9.3e0 9.811321e0 1.0214286e1
vertex 9.3e0 1.0214286e1 1.0214286e1
vertex 9.787815e0 9.787815e0 9.787815e0
endloop
endfacet
facet normal -6.581836e-1 -7.528575e-1 -0.0e0
outer loop
vertex 9.3e0 1.0214286e1 1.0214286e1
vertex 9.3e0 1.0214286e1 9.811321e0
vertex 9.787815e0 9.787815e0 9.787815e0
endloop
endfacet
facet normal -6.4797556e-1 -7.290233e-1 -2.2057363e-1
outer loop
vertex 9.3e0 1.0214286e1 9.811321e0
vertex 9.429853e0 1.0214286e1 9.429853e0
vertex 9.787815e0 9.787815e0 9.787815e0
endloop
endfacet
facet normal -2.2057363e-1 -7.290233e-1 -6.4797556e-1
outer loop
vertex 9.429853e0 1.0214286e1 9.429853e0
vertex 9.811321e0 1.0214286e1 9.3e0
vertex 9.787815e0 9.787815e0 9.787815e0
endloop
endfacet
facet normal 0.0e0 -7.528575e-1 -6.581836e-1
outer loop
vertex 9.811321e0 1.0214286e1 9.3e0
vertex 1.0214286e1 1.0214286e1 9.3e0
vertex 9.787815e0 9.787815e0 9.787815e0
endloop
endfacet
facet normal 6.5670645e-1 0.0e0 -7.5414634e-1
outer loop
vertex 1.0214286e1 9.811321e0 9.3e0
vertex 1.0214286e1 1.0214286e1 9.3e0
vertex 1.0673636e1 1.0214286e1 9.7e0
endloop
endfacet
facet normal 6.5723944e-1 -1.0693759e-3 -7.536811e-1
outer loop
vertex 1.0214286e1 9.811321e0 9.3e0
vertex 1.0673636e1 1.0214286e1 9.7e0
vertex 1.0913042e1 1.0214286e1 9.9087715e0
endloop
endfacet
facet normal 0.0e0 0.0e0 -1.0e0
outer loop
vertex 1.0913042e1 9.9087715e0 1.0214286e1
vertex 1.0673636e1 9.7e0 1.0214286e1
vertex 1.0214286e1 9.3e0 1.0214286e1
endloop
endfacet
facet normal 6.5688926e-1 -7.539871e-1 0.0e0
outer loop
vertex 1.0913042e1 9.9087715e0 1.0214286e1
vertex 1.0214286e1 9.3e0 1.0214286e1
vertex 1.0214286e1 9.3e0 9.811321e0
endloop
endfacet
facet normal 7.1732825e-1 -5.070725e-1 -4.7782594e-1
outer loop
vertex 1.0913042e1 9.9087715e0 1.0214286e1
vertex 1.0214286e1 9.3e0 9.811321e0
vertex 1.0578157e1 9.8130865e0 9.8130865e0
endloop
endfacet
facet normal 8.006653e-1 -5.671529e-1 -1.9306126e-1
outer loop
vertex 1.0214286e1 9.3e0 9.811321e0
vertex 1.0214286e1 9.429853e0 9.429853e0
vertex 1.0578157e1 9.8130865e0 9.8130865e0
endloop
endfacet
facet normal 8.006653e-1 -1.9306126e-1 -5.671529e-1
outer loop
vertex 1.0214286e1 9.429853e0 9.429853e0
vertex 1.0214286e1 9.811321e0 9.3e0
vertex 1.0578157e1 9.8130865e0 9.8130865e0
endloop
endfacet
facet normal 7.1732825e-1 -4.7782594e-1 -5.070725e-1
outer loop
vertex 1.0214286e1 9.811321e0 9.3e0
vertex 1.0913042e1 1.0214286e1 9.9087715e0
vertex 1.0578157e1 9.8130865e0 9.8130865e0
endloop
endfacet
facet normal 7.7404636e-1 -5.9356016e-1 -2.2031468e-1
outer loop
vertex 1.0913042e1 1.0214286e1 9.9087715e0
vertex 1.1e1 1.0214286e1 1.0214286e1
vertex 1.0578157e1 9.8130865e0 9.8130865e0
endloop
endfacet
facet normal 7.7404636e-1 -2.2031468e-1 -5.9356016e-1
outer loop
vertex 1.1e1 1.0214286e1 1.0214286e1
vertex 1.0913042e1 9.9087715e0 1.0214286e1
vertex 1.0578157e1 9.8130865e0 9.8130865e0
endloop
endfacet
facet normal -1.0e0 0.0e0 0.0e0
outer loop
vertex 1.0214286e1 1.0913042e1 9.9087715e0
vertex 1.0214286e1 1.0673636e1 9.7e0
vertex 1.0214286e1 1.0214286e1 9.3e0
endloop
endfacet
facet normal 0.0e0 6.5688926e-1 -7.539871e-1
outer loop
vertex 1.0214286e1 1.0913042e1 9.9087715e0
vertex 1.0214286e1 1.0214286e1 9.3e0
vertex 9.811321e0 1.0214286e1 9.3e0
endloop
endfacet
facet normal -7.5414634e-1 6.5670645e-1 0.0e0
outer loop
vertex 9.3e0 1.0214286e1 9.811321e0
vertex 9.3e0 1.0214286e1 1.0214286e1
vertex 9.7e0 1.0673636e1 1.0214286e1
endloop
endfacet
facet normal -7.536811e-1 6.5723944e-1 -1.0693759e-3
outer loop
vertex 9.3e0 1.0214286e1 9.811321e0
vertex 9.7e0 1.0673636e1 1.0214286e1
vertex 9.9087715e0 1.0913042e1 1.0214286e1
endloop
endfacet
facet normal -5.070725e-1 7.1732825e-1 -4.7782594e-1
outer loop
vertex 9.3e0 1.0214286e1 9.811321e0
vertex 9.9087715e0 1.0913042e1 1.0214286e1
vertex 9.8130865e0 1.0578157e1 9.8130865e0
endloop
endfacet
facet normal -2.2031468e-1 7.7404636e-1 -5.9356016e-1
outer loop
vertex 9.9087715e0 1.0913042e1 1.0214286e1
vertex 1.0214286e1 1.1e1 1.0214286e1
vertex 9.8130865e0 1.0578157e1 9.8130865e0
endloop
endfacet
facet normal -5.9356016e-1 7.7404636e-1 -2.2031468e-1
outer loop
vertex 1.0214286e1 1.1e1 1.0214286e1
vertex 1.0214286e1 1.0913042e1 9.9087715e0
vertex 9.8130865e0 1.0578157e1 9.8130865e0
endloop
endfacet
facet normal -4.7782594e-1 7.1732825e-1 -5.070725e-1
outer loop
vertex 1.0214286e1 1.0913042e1 9.9087715e0
vertex 9.811321e0 1.0214286e1 9.3e0
vertex 9.8130865e0 1.0578157e1 9.8130865e0
endloop
endfacet
facet normal -1.9306126e-1 8.006653e-1 -5.671529e-1
outer loop
vertex 9.811321e0 1.0214286e1 9.3e0
vertex 9.429853e0 1.0214286e1 9.429853e0
vertex 9.8130865e0 1.0578157e1 9.8130865e0
endloop
endfacet
facet normal -5.671529e-1 8.006653e-1 -1.9306126e-1
outer loop
vertex 9.429853e0 1.0214286e1 9.429853e0
vertex 9.3e0 1.0214286e1 9.811321e0
vertex 9.8130865e0 1.0578157e1 9.8130865e0
endloop
endfacet
facet normal 1.0e0 0.0e0 0.0e0
outer loop
vertex 1.0214286e1 1.0214286e1 9.3e0
vertex 1.0214286e1 1.0673636e1 9.7e0
vertex 1.0214286e1 1.0913042e1 9.9087715e0
endloop
endfacet
facet normal 0.0e0 1.0e0 0.0e0
outer loop
vertex 1.0913042e1 1.0214286e1 9.9087715e0
vertex 1.0673636e1 1.0214286e1 9.7e0
vertex 1.0214286e1 1.0214286e1 9.3e0
endloop
endfacet
facet normal 6.530144e-1 1.084563e-1 -7.4953943e-1
outer loop
vertex 1.0913042e1 1.0214286e1 9.9087715e0
vertex 1.0214286e1 1.0214286e1 9.3e0
vertex 1.0706451e1 1.0706451e1 9.8e0
endloop
endfacet
facet normal 1.084563e-1 6.530144e-1 -7.4953943e-1
outer loop
vertex 1.0214286e1 1.0214286e1 9.3e0
vertex 1.0214286e1 1.0913042e1 9.9087715e0
vertex 1.0706451e1 1.0706451e1 9.8e0
endloop
endfacet
facet normal 3.246338e-1 9.097084e-1 -2.5892776e-1
outer loop
vertex 1.0214286e1 1.0913042e1 9.9087715e0
vertex 1.0214286e1 1.1e1 1.0214286e1
vertex 1.0706451e1 1.0706451e1 9.8e0
endloop
endfacet
facet normal 7.299751e-3 8.1998366e-1 -5.7234037e-1
outer loop
vertex 1.0214286e1 1.1e1 1.0214286e1
vertex 1.0993067e1 1.0993067e1 1.0214286e1
vertex 1.0706451e1 1.0706451e1 9.8e0
endloop
endfacet
facet normal 8.1998366e-1 7.299751e-3 -5.7234037e-1
outer loop
vertex 1.0993067e1 1.0993067e1 1.0214286e1
vertex 1.1e1 1.0214286e1 1.0214286e1
vertex 1.0706451e1 1.0706451e1 9.8e0
endloop
endfacet
facet normal 9.097084e-1 3.246338e-1 -2.5892776e-1
outer loop
vertex 1.1e1 1.0214286e1 1.0214286e1
vertex 1.0913042e1 1.0214286e1 9.9087715e0
vertex 1.0706451e1 1.0706451e1 9.8e0
endloop
endfacet
facet normal -1.0e0 0.0e0 0.0e0
outer loop
vertex 1.0214286e1 9.3e0 1.0214286e1
vertex 1.0214286e1 9.7e0 1.0673636e1
vertex 1.0214286e1 9.9087715e0 1.0913042e1
endloop
endfacet
facet normal 0.0e0 -1.0e0 0.0e0
outer loop
vertex 9.9087715e0 1.0214286e1 1.0913042e1
vertex 9.7e0 1.0214286e1 1.0673636e1
vertex 9.3e0 1.0214286e1 1.0214286e1
endloop
endfacet
facet normal -7.539871e-1 0.0e0 6.5688926e-1
outer loop
vertex 9.9087715e0 1.0214286e1 1.0913042e1
vertex 9.3e0 1.0214286e1 1.0214286e1
vertex 9.3e0 9.811321e0 1.0214286e1
endloop
endfacet
facet normal 0.0e0 -7.539871e-1 6.5688926e-1
outer loop
vertex 9.811321e0 9.3e0 1.0214286e1
vertex 1.0214286e1 9.3e0 1.0214286e1
vertex 1.0214286e1 9.9087715e0 1.0913042e1
endloop
endfacet
facet normal -4.7782594e-1 -5.070725e-1 7.1732825e-1
outer loop
vertex 9.811321e0 9.3e0 1.0214286e1
vertex 1.0214286e1 9.9087715e0 1.0913042e1
vertex 9.8130865e0 9.8130865e0 1.0578157e1
endloop
endfacet
facet normal -5.9356016e-1 -2.2031468e-1 7.7404636e-1
outer loop
vertex 1.0214286e1 9.9087715e0 1.0913042e1
vertex 1.0214286e1 1.0214286e1 1.1e1
vertex 9.8130865e0 9.8130865e0 1.0578157e1
endloop
endfacet
facet normal -2.2031468e-1 -5.9356016e-1 7.7404636e-1
outer loop
vertex 1.0214286e1 1.0214286e1 1.1e1
vertex 9.9087715e0 1.0214286e1 1.0913042e1
vertex 9.8130865e0 9.8130865e0 1.0578157e1
endloop
endfacet
facet normal -5.070725e-1 -4.7782594e-1 7.1732825e-1
outer loop
vertex 9.9087715e0 1.0214286e1 1.0913042e1
vertex 9.3e0 9.811321e0 1.0214286e1
vertex 9.8130865e0 9.8130865e0 1.0578157e1
endloop
endfacet
facet normal -5.671529e-1 -1.9306126e-1 8.006653e-1
outer loop
vertex 9.3e0 9.811321e0 1.0214286e1
vertex 9.429853e0 9.429853e0 1.0214286e1
vertex 9.8130865e0 9.8130865e0 1.0578157e1
endloop
endfacet
facet normal -1.9306126e-1 -5.671529e-1 8.006653e-1
outer loop
vertex 9.429853e0 9.429853e0 1.0214286e1
vertex 9.811321e0 9.3e0 1.0214286e1
vertex 9.8130865e0 9.8130865e0 1.0578157e1
endloop
endfacet
facet normal 1.0e0 0.0e0 0.0e0
outer loop
vertex 1.0214286e1 9.9087715e0 1.0913042e1
vertex 1.0214286e1 9.7e0 1.0673636e1
vertex 1.0214286e1 9.3e0 1.0214286e1
endloop
endfacet
facet normal 0.0e0 0.0e0 1.0e0
outer loop
vertex 1.0214286e1 9.3e0 1.0214286e1
vertex 1.0673636e1 9.7e0 1.0214286e1
vertex 1.0913042e1 9.9087715e0 1.0214286e1
endloop
endfacet
facet normal 6.530144e-1 -7.4953943e-1 1.084563e-1
outer loop
vertex 1.0214286e1 9.3e0 1.0214286e1
vertex 1.0913042e1 9.9087715e0 1.0214286e1
vertex 1.0706451e1 9.8e0 1.0706451e1
endloop
endfacet
facet normal 9.097084e-1 -2.5892776e-1 3.246338e-1
outer loop
vertex 1.0913042e1 9.9087715e0 1.0214286e1
vertex 1.1e1 1.0214286e1 1.0214286e1
vertex 1.0706451e1 9.8e0 1.0706451e1
endloop
endfacet
facet normal 8.1998366e-1 -5.7234037e-1 7.299751e-3
outer loop
vertex 1.1e1 1.0214286e1 1.0214286e1
vertex 1.0993067e1 1.0214286e1 1.0993067e1
vertex 1.0706451e1 9.8e0 1.0706451e1
endloop
endfacet
facet normal 7.299751e-3 -5.7234037e-1 8.1998366e-1
outer loop
vertex 1.0993067e1 1.0214286e1 1.0993067e1
vertex 1.0214286e1 1.0214286e1 1.1e1
vertex 1.0706451e1 9.8e0 1.0706451e1
endloop
endfacet
facet normal 3.246338e-1 -2.5892776e-1 9.097084e-1
outer loop
vertex 1.0214286e1 1.0214286e1 1.1e1
vertex 1.0214286e1 9.9087715e0 1.0913042e1
vertex 1.0706451e1 9.8e0 1.0706451e1
endloop
endfacet
facet normal 1.084563e-1 -7.4953943e-1 6.530144e-1
outer loop
vertex 1.0214286e1 9.9087715e0 1.0913042e1
vertex 1.0214286e1 9.3e0 1.0214286e1
vertex 1.0706451e1 9.8e0 1.0706451e1
endloop
endfacet
facet normal 0.0e0 0.0e0 1.0e0
outer loop
vertex 9.9087715e0 1.0913042e1 1.0214286e1
vertex 9.7e0 1.0673636e1 1.0214286e1
vertex 9.3e0 1.0214286e1 1.0214286e1
endloop
endfacet
facet normal 0.0e0 1.0e0 0.0e0
outer loop
vertex 9.3e0 1.0214286e1 1.0214286e1
vertex 9.7e0 1.0214286e1 1.0673636e1
vertex 9.9087715e0 1.0214286e1 1.0913042e1
endloop
endfacet
facet normal -7.4953943e-1 1.084563e-1 6.530144e-1
outer loop
vertex 9.3e0 1.0214286e1 1.0214286e1
vertex 9.9087715e0 1.0214286e1 1.0913042e1
vertex 9.8e0 1.0706451e1 1.0706451e1
endloop
endfacet
facet normal -2.5892776e-1 3.246338e-1 9.097084e-1
outer loop
vertex 9.9087715e0 1.0214286e1 1.0913042e1
vertex 1.0214286e1 1.0214286e1 1.1e1
vertex 9.8e0 1.0706451e1 1.0706451e1
endloop
endfacet
facet normal -5.7234037e-1 7.299751e-3 8.1998366e-1
outer loop
vertex 1.0214286e1 1.0214286e1 1.1e1
vertex 1.0214286e1 1.0993067e1 1.0993067e1
vertex 9.8e0 1.0706451e1 1.0706451e1
endloop
endfacet
facet normal -5.7234037e-1 8.1998366e-1 7.299751e-3
outer loop
vertex 1.0214286e1 1.0993067e1 1.0993067e1
vertex 1.0214286e1 1.1e1 1.0214286e1
vertex 9.8e0 1.0706451e1 1.0706451e1
endloop
endfacet
facet normal -2.5892776e-1 9.097084e-1 3.246338e-1
outer loop
vertex 1.0214286e1 1.1e1 1.0214286e1
vertex 9.9087715e0 1.0913042e1 1.0214286e1
vertex 9.8e0 1.0706451e1 1.0706451e1
endloop
endfacet
facet normal -7.4953943e-1 6.530144e-1 1.084563e-1
outer loop
vertex 9.9087715e0 1.0913042e1 1.0214286e1
vertex 9.3e0 1.0214286e1 1.0214286e1
vertex 9.8e0 1.0706451e1 1.0706451e1
endloop
endfacet
facet normal 8.901607e-3 8.901607e-3 9.999208e-1
outer loop
vertex 1.0214286e1 1.0993067e1 1.0993067e1
vertex 1.0214286e1 1.0214286e1 1.1e1
vertex 1.0993067e1 1.0214286e1 1.0993067e1
endloop
endfacet
facet normal 9.999208e-1 8.901607e-3 8.901607e-3
outer loop
vertex 1.0993067e1 1.0214286e1 1.0993067e1
vertex 1.1e1 1.0214286e1 1.0214286e1
vertex 1.0993067e1 1.0993067e1 1.0214286e1
endloop
endfacet
facet normal 8.901607e-3 9.999208e-1 8.901607e-3
outer loop
vertex 1.0993067e1 1.0993067e1 1.0214286e1
vertex 1.0214286e1 1.1e1 1.0214286e1
vertex 1.0214286e1 1.0993067e1 1.0993067e1
endloop
endfacet
facet normal -8.745913e-3 9.999235e-1 -8.745913e-3
outer loop
vertex 1.0993067e1 1.0993067e1 1.0214286e1
vertex 1.0214286e1 1.0993067e1 1.0993067e1
vertex 1.1e1 1.1e1 1.1e1
endloop
endfacet
facet normal -8.745913e-3 -8.745913e-3 9.999235e-1
outer loop
vertex 1.0214286e1 1.0993067e1 1.0993067e1
vertex 1.0993067e1 1.0214286e1 1.0993067e1
vertex 1.1e1 1.1e1 1.1e1
endloop
endfacet
facet normal 9.999235e-1 -8.745913e-3 -8.745913e-3
outer loop
vertex 1.0993067e1 1.0214286e1 1.0993067e1
vertex 1.0993067e1 1.0993067e1 1.0214286e1
vertex 1.1e1 1.1e1 1.1e1
endloop
endfacet
endsolid ImplictCADExport
